<svg xmlns="http://www.w3.org/2000/svg" width="404" height="391.03" viewBox="0 0 404 391.03"><g transform="translate(-48 -58.495)"><path d="M205.63,68,110.44,191.67l256-63.64L223.85,63.43A15.09,15.09,0,0,0,205.63,68Z" fill="#ebebeb"/><path d="M109.09,192.55,205.21,67.69A15.55,15.55,0,0,1,224.07,63l144,65.23Zm108.5-130a14.49,14.49,0,0,0-11.54,5.74h0L111.78,190.8l253.06-62.91-141.2-64a14.6,14.6,0,0,0-6.05-1.29Z" fill="#e0e0e0"/><path d="M125.12,157.47H389.84V300.94a10.71,10.71,0,0,1-10.71,10.71H135.83a10.71,10.71,0,0,1-10.71-10.71Z" transform="translate(-48.98 69.04) rotate(-13.96)" fill="#f0f0f0"/><path d="M351.52,135.44l-89,90.93L128,196.09l-15.39-71.35a14.4,14.4,0,0,1,10.55-17.22l194.6-48.37a14.38,14.38,0,0,1,17.44,10.5Z" fill="#fff"/><path d="M250.3,219.22,144.61,329.66h0a11.78,11.78,0,0,0,14.28,8.59L393.19,280a11.78,11.78,0,0,0,8.59-14.27l-.22-.88L263.36,216.1a12.36,12.36,0,0,0-13.06,3.12Z" fill="#e0e0e0"/><rect width="78.45" height="8.01" transform="translate(140.403 136.993) rotate(-13.97)" fill="#e0e0e0"/><rect width="174.06" height="9.05" transform="translate(145.304 156.7) rotate(-13.97)" fill="#e0e0e0"/><rect width="174.06" height="9.05" transform="translate(150.646 178.156) rotate(-13.97)" fill="#e0e0e0"/><path d="M323.11,164.57l-5.29,5.29-141.8,37.07-18.53-4.33-.7-2.01,168.37-41.88.73,2.91Z" fill="#e0e0e0"/><path d="M286.84,201.52,222.96,217.4l-19.53-4.46,95.47-23.75Z" fill="#e0e0e0"/><path d="M246.44,223.24a2.64,2.64,0,0,1-.24.3l-.76.83-2.94,3.15-10.89,11.53c-9.22,9.71-22,23.13-36.15,37.84s-27.15,27.91-36.63,37.37c-4.74,4.73-8.6,8.55-11.28,11.16l-3.09,3-.82.77a1.49,1.49,0,0,1-.29.25,2,2,0,0,1,.25-.29l.78-.81,3-3.07L158.55,314c9.41-9.53,22.34-22.76,36.52-37.48s27-28,36.25-37.73l11-11.41,3-3.08.8-.79C246.34,223.32,246.44,223.24,246.44,223.24Z" fill="#fafafa"/><path d="M401.56,264.83c-.05.14-29.52-10.09-65.82-22.85s-65.69-23.22-65.64-23.36,29.52,10.08,65.82,22.84S401.61,264.68,401.56,264.83Z" fill="#fafafa"/><path d="M355.75,131.06a1.671,1.671,0,0,1-.19.25L355,132l-2.37,2.63-8.83,9.59c-7.48,8.07-17.9,19.13-29.58,31.2S291.76,198.26,283.94,206l-9.31,9.12-2.56,2.45-.67.63c-.16.14-.24.21-.25.2a2,2,0,0,1,.21-.24l.63-.67,2.49-2.52,9.18-9.24c7.76-7.81,18.43-18.63,30.11-30.69S335.91,152,343.47,144l8.95-9.47,2.45-2.56.65-.66a1.381,1.381,0,0,1,.23-.25Z" fill="#fafafa"/><path d="M246.44,223.24a1.56,1.56,0,0,1-.35-.06l-1-.24-4-1c-3.42-.86-8.39-2.07-14.54-3.51-12.29-2.91-29.34-6.66-48.18-10.74s-35.88-7.89-48.15-10.9c-6.14-1.5-11.1-2.76-14.51-3.68l-3.93-1.07-1-.29a1.378,1.378,0,0,1-.34-.12l.35.07,1,.23,4,1c3.43.86,8.4,2.06,14.55,3.51,12.29,2.91,29.33,6.66,48.18,10.74s35.88,7.89,48.15,10.9c6.14,1.5,11.1,2.75,14.51,3.68l3.92,1.07,1,.29Z" fill="#fafafa"/><path d="M351.52,135.44s-.1-.33-.27-1l-.73-2.83c-.64-2.51-1.57-6.18-2.77-10.91L337.68,80.58q-.8-3.18-1.63-6.51c-.27-1.1-.55-2.23-.84-3.36-.14-.57-.28-1.14-.46-1.69a11.134,11.134,0,0,0-.6-1.64,14.11,14.11,0,0,0-11.25-8.31,13.9,13.9,0,0,0-3.81,0c-1.26.22-2.54.57-3.83.88l-7.85,2L291,66,218.09,84.2l-73,18.12-16.39,4.06-4,1a22.329,22.329,0,0,0-3.8,1.15,14.21,14.21,0,0,0-5.92,4.79,14.62,14.62,0,0,0-1.76,3.31,15.421,15.421,0,0,0-.81,3.59c-.29,2.45.39,4.81.87,7.14q1.5,7,2.87,13.41c3.65,17.09,6.6,30.91,8.64,40.48,1,4.78,1.79,8.48,2.33,11,.25,1.25.45,2.21.59,2.87s.18,1,.18,1-.09-.33-.24-1-.36-1.61-.64-2.85c-.56-2.53-1.37-6.23-2.42-11-2.09-9.56-5.1-23.38-8.82-40.44-.92-4.27-1.9-8.74-2.91-13.41-.48-2.3-1.18-4.74-.88-7.27a15,15,0,0,1,.82-3.71,15.37,15.37,0,0,1,1.81-3.42,14.05,14.05,0,0,1,2.69-2.87,13.61,13.61,0,0,1,3.41-2.08,22.13,22.13,0,0,1,3.87-1.18l4-1L145,101.83l73-18.16,73-18.12,16.39-4.06,7.85-1.94c1.29-.32,2.55-.66,3.87-.89a14.593,14.593,0,0,1,15.54,8.55,11.413,11.413,0,0,1,.62,1.69c.18.57.32,1.14.46,1.71.28,1.13.55,2.26.83,3.37.55,2.22,1.08,4.39,1.61,6.51l9.9,40.19c1.15,4.74,2.05,8.42,2.66,10.93.3,1.25.53,2.2.68,2.85A3.184,3.184,0,0,1,351.52,135.44Z" fill="#e0e0e0"/><path d="M452,449c0,.15-90.44.27-202,.27S48,449.16,48,449s90.43-.28,202-.28S452,448.86,452,449Z" fill="#263238"/><path d="M239.71,82.66l-9.89,7.53.48,14.38-9.05-7.19-5,4.28-19-23.46Z" fill="#e7b24a"/><path d="M226.1,93.25c0,.44,4.2,11.32,4.2,11.32l-9.05-7.19Z" fill="#e7b24a"/><path d="M197.25,78.2,226.1,93.25l4.2,11.32-.48-14.38Z" fill="#fff"/><path d="M226.1,93.25l4.2,11.32-.48-14.38Z" fill="#b3cfd5" opacity="0.1"/><path d="M277.25,272.22a12.91,12.91,0,0,1-5.13-1.25A12.91,12.91,0,0,1,277.25,272.22Z" fill="#263238"/><path d="M285.43,274.22c0,.15-.75.1-1.59-.1s-1.5-.5-1.47-.65.75-.1,1.6.11S285.47,274.07,285.43,274.22Z" fill="#263238"/><path d="M251.67,102.69a7.79,7.79,0,0,1-2.61-.41,7.31,7.31,0,0,1-2.52-.79,5.88,5.88,0,0,1,2.65.26,5.57,5.57,0,0,1,2.48.94Z" fill="#263238"/><path d="M261.35,106.84a17.93,17.93,0,0,1-4.71-2.36,5.69,5.69,0,0,1,2.51.86C260.46,106,261.43,106.71,261.35,106.84Z" fill="#263238"/><path d="M269.74,113.2c-.11.11-1-.64-2.12-1.58s-2-1.74-1.87-1.87A5.8,5.8,0,0,1,268,111.2C269.09,112.16,269.85,113.1,269.74,113.2Z" fill="#263238"/><path d="M276.14,121.55c-.14.07-.8-.9-1.6-2.1a7.85,7.85,0,0,1-1.3-2.3c.11-.09.95.77,1.76,2a5.68,5.68,0,0,1,1.14,2.4Z" fill="#263238"/><path d="M279.77,131.42a8,8,0,0,1-.88-2.49,7.561,7.561,0,0,1-.55-2.59,5.83,5.83,0,0,1,1.07,2.44,5.459,5.459,0,0,1,.36,2.64Z" fill="#263238"/><path d="M280.31,141.92a8.238,8.238,0,0,1-.11-2.64,7.541,7.541,0,0,1,.24-2.63,5.83,5.83,0,0,1,.31,2.64A5.71,5.71,0,0,1,280.31,141.92Z" fill="#263238"/><path d="M277.58,152.06a8.14,8.14,0,0,1,.74-2.53,8.4,8.4,0,0,1,1-2.43,5.29,5.29,0,0,1-.53,2.61,5.43,5.43,0,0,1-1.21,2.35Z" fill="#263238"/><path d="M271.47,160.6c-.1-.12.68-1,1.63-2.08s1.71-2,1.84-1.89a5.47,5.47,0,0,1-1.43,2.25C272.54,160,271.57,160.71,271.47,160.6Z" fill="#263238"/><path d="M262.65,166.28a8.259,8.259,0,0,1,2.26-1.36,8.08,8.08,0,0,1,2.41-1.08,5.53,5.53,0,0,1-2.16,1.57,5.45,5.45,0,0,1-2.51.87Z" fill="#263238"/><path d="M252.39,168.49A8,8,0,0,1,255,168a8.23,8.23,0,0,1,2.64-.17,5.47,5.47,0,0,1-2.57.71,5.34,5.34,0,0,1-2.68-.05Z" fill="#263238"/><path d="M242.09,166.54a28.56,28.56,0,0,1,5,1.53,5.19,5.19,0,0,1-2.64-.36,5.09,5.09,0,0,1-2.36-1.17Z" fill="#263238"/><path d="M234.79,159.3c.15-.05.61,1,1.43,2.18s1.61,2,1.5,2.15-1.09-.6-1.95-1.83A4,4,0,0,1,234.79,159.3Z" fill="#263238"/><path d="M239.23,151.11c0,.16-1.09.51-2.23,1.32s-1.75,1.82-1.89,1.74.3-1.28,1.57-2.18a3.66,3.66,0,0,1,2.55-.88Z" fill="#263238"/><path d="M248.27,154.86c-.14.08-.78-.9-1.82-1.86s-2.1-1.44-2-1.59a3.65,3.65,0,0,1,2.42,1.19,3.88,3.88,0,0,1,1.4,2.26Z" fill="#263238"/><path d="M248.61,165.07a12.67,12.67,0,0,1,.49-2.57,12.851,12.851,0,0,1,.49-2.58,4.56,4.56,0,0,1,0,2.68,4.47,4.47,0,0,1-.98,2.47Z" fill="#263238"/><path d="M241.76,172.92c-.09-.13.82-.88,1.91-1.81a10.856,10.856,0,0,1,2.07-1.63,5.211,5.211,0,0,1-1.71,2,6.3,6.3,0,0,1-2.27,1.44Z" fill="#263238"/><path d="M232.41,177.78a6.64,6.64,0,0,1,2.28-1.35,6.47,6.47,0,0,1,2.51-.85,12.76,12.76,0,0,1-4.79,2.2Z" fill="#263238"/><path d="M223,182.56c-.08-.13.87-.84,2.13-1.6a6,6,0,0,1,2.46-1c.08.15-.94.76-2.19,1.48a6.46,6.46,0,0,1-2.4,1.12Z" fill="#263238"/><path d="M215,189.44c-.11-.1.58-1.08,1.63-2.11a5.87,5.87,0,0,1,2.13-1.59c.1.12-.71,1-1.74,2S215.16,189.54,215,189.44Z" fill="#263238"/><path d="M209,198.06a5.82,5.82,0,0,1,1.08-2.43c.77-1.25,1.56-2.15,1.68-2.06a7.42,7.42,0,0,1-1.21,2.35C209.79,197.15,209.14,198.13,209,198.06Z" fill="#263238"/><path d="M205.16,207.86a5.61,5.61,0,0,1,.48-2.61,5.69,5.69,0,0,1,1.15-2.4,17.8,17.8,0,0,1-1.63,5Z" fill="#263238"/><path d="M203.78,218.3a9.8,9.8,0,0,1,.36-5.26,7.69,7.69,0,0,1,0,2.64,7.57,7.57,0,0,1-.36,2.62Z" fill="#263238"/><path d="M205.16,228.73a6.43,6.43,0,0,1-.83-2.52,5.38,5.38,0,0,1-.22-2.65,8.33,8.33,0,0,1,.76,2.54A6.46,6.46,0,0,1,205.16,228.73Z" fill="#263238"/><path d="M209.23,238.43c-.13.08-.84-.88-1.49-2.2a5.58,5.58,0,0,1-.85-2.52,7.62,7.62,0,0,1,1.34,2.28A7.54,7.54,0,0,1,209.23,238.43Z" fill="#263238"/><path d="M215.55,246.86c-.1.1-1-.66-2-1.78a5.919,5.919,0,0,1-1.44-2.24c.13-.1.92.78,1.86,1.88S215.66,246.75,215.55,246.86Z" fill="#263238"/><path d="M223.67,253.56a5.72,5.72,0,0,1-2.34-1.27c-1.18-.86-2-1.72-1.92-1.84a7.659,7.659,0,0,1,2.25,1.4C222.82,252.7,223.75,253.43,223.67,253.56Z" fill="#263238"/><path d="M233.17,258.1a5.59,5.59,0,0,1-2.58-.65,5.45,5.45,0,0,1-2.31-1.32,8,8,0,0,1,2.51.81A8.36,8.36,0,0,1,233.17,258.1Z" fill="#263238"/><path d="M238.46,259.45c0,.14-.09.26-.14.25s-.07-.14,0-.29.09-.26.14-.25S238.49,259.3,238.46,259.45Z" fill="#263238"/><path d="M248.8,255a4.39,4.39,0,1,1,1.743-2.875A4.39,4.39,0,0,1,248.8,255Z" fill="#e7b24a"/><path d="M249,250.65a20.07,20.07,0,0,1-2.95,1.82l-.7.39-.13.07-.07-.12a14.188,14.188,0,0,1-1.2-2.37,13.189,13.189,0,0,1,1.45,2.23l-.19-.06.7-.4a19.862,19.862,0,0,1,3.09-1.56Z" fill="#fff"/><g transform="translate(0 1)"><rect width="15.51" height="9.65" transform="translate(242.607 231.49) rotate(18.181)" fill="#e7b24a"/><path d="M257.31,236.34a3.341,3.341,0,0,1-.65.3l-1.84.72c-1.55.59-3.71,1.4-6.13,2.28h-.1l-.06-.09-.24-.32c-1.61-2.12-3-4.05-4.09-5.46l-1.2-1.63a4.4,4.4,0,0,1-.41-.64,3.779,3.779,0,0,1,.5.57l1.29,1.62c1.07,1.37,2.54,3.28,4.14,5.4l.25.33h-.16c2.41-.88,4.58-1.66,6.16-2.2l1.86-.63A3.22,3.22,0,0,1,257.31,236.34Z" fill="#fff"/><path d="M246.84,237.12a30.137,30.137,0,0,1-3.57,1.9,29.757,29.757,0,0,1-3.7,1.65,27.528,27.528,0,0,1,3.57-1.91,28.066,28.066,0,0,1,3.7-1.64Z" fill="#fff"/><path d="M254.57,245.59a26.4,26.4,0,0,1-1.68-3.5,28.28,28.28,0,0,1-1.42-3.62,50.9,50.9,0,0,1,3.1,7.12Z" fill="#fff"/></g><g transform="translate(-44.262 -32.555)"><rect width="29.931" height="18.622" transform="translate(245.43 231.49) rotate(18.181)" fill="#e7b24a"/><path d="M271,240.84a6.446,6.446,0,0,1-1.254.579l-3.551,1.389c-2.991,1.139-7.16,2.7-11.83,4.4h-.193l-.116-.174-.463-.618c-3.107-4.091-5.789-7.816-7.893-10.537l-2.316-3.146a8.49,8.49,0,0,1-.791-1.235,7.293,7.293,0,0,1,.965,1.1l2.489,3.126c2.065,2.644,4.9,6.33,7.989,10.421l.482.637h-.309c4.651-1.7,8.838-3.2,11.888-4.246l3.589-1.216a6.212,6.212,0,0,1,1.314-.48Z" transform="translate(2.808 0.009)" fill="#fff"/><path d="M253.6,237.12a58.159,58.159,0,0,1-6.889,3.667,57.432,57.432,0,0,1-7.14,3.184,53.119,53.119,0,0,1,6.889-3.686,54.157,54.157,0,0,1,7.14-3.165Z" transform="translate(0 5.235)" fill="#fff"/><path d="M257.452,252.21a50.943,50.943,0,0,1-3.242-6.754,54.576,54.576,0,0,1-2.74-6.986,98.224,98.224,0,0,1,5.982,13.74Z" transform="translate(11.065 6.49)" fill="#fff"/></g><path d="M395.65,417.09a19.33,19.33,0,0,1,12-1.46c2.18.36,4.45,1,5.94,2.64s1.76,4.52.06,5.93a5.77,5.77,0,0,1-3.74.95c-3.18,0-6.7-.6-9.24,1.31-1.45,1.09-2.41,2.9-4.14,3.44a4.11,4.11,0,0,1-4.5-2,7,7,0,0,1-.51-5.16A7.86,7.86,0,0,1,395.65,417.09Z" fill="#b3cfd5"/><path d="M387.28,400.93c2.24,3.19,6.58,2.13,8.59.18s2.87-4.77,3.64-7.46c1.77-6.15,3.55-12.6,2.24-18.86a10.61,10.61,0,0,0-2.41-5.13,5.48,5.48,0,0,0-5.19-1.73c-2.19.58-3.55,2.73-4.53,4.77a45.06,45.06,0,0,0-4.45,19.3c0,3.11.36,6.37,2.11,8.94" fill="#b3cfd5"/><path d="M381.15,405.51c2.42-2.88,2.88-7.08,1.8-10.69a20.65,20.65,0,0,0-6.32-9.18A34.18,34.18,0,0,0,365.3,379a12.12,12.12,0,0,0-5.1-.87,5.37,5.37,0,0,0-4.28,2.59c-1.19,2.27-.05,5,1.19,7.28a86.832,86.832,0,0,0,7.44,11.34c2.23,2.87,4.79,5.71,8.19,7s6.93,1.15,8.73-1.21" fill="#b3cfd5"/><path d="M387.13,449.06a7.15,7.15,0,0,0,.2-1.45c.11-1.06.23-2.38.39-4a56.484,56.484,0,0,1,.89-5.8,44.222,44.222,0,0,1,2.11-6.85,25.25,25.25,0,0,1,3.5-6.2,13,13,0,0,1,4.42-3.68,12.6,12.6,0,0,1,3.72-1.16,7,7,0,0,0,1.44-.2,6,6,0,0,0-1.46,0,11.41,11.41,0,0,0-3.89,1,13.131,13.131,0,0,0-4.66,3.71,24.78,24.78,0,0,0-3.63,6.32,42.189,42.189,0,0,0-2.09,7,48.277,48.277,0,0,0-.77,5.87c-.13,1.68-.18,3-.2,4a7.1,7.1,0,0,0,.03,1.44Z" fill="#263238"/><path d="M387.4,446a2.49,2.49,0,0,0,0-.67v-1.92c0-1.67,0-4.09.08-7.07.15-6,.66-14.21,1.66-23.26s2.32-17.2,3.53-23c.28-1.46.57-2.78.84-3.93s.48-2.16.69-3,.33-1.38.45-1.87a2.71,2.71,0,0,0,.12-.67,2.832,2.832,0,0,0-.23.63l-.56,1.85c-.25.8-.5,1.79-.79,2.94s-.62,2.46-.94,3.93A219.266,219.266,0,0,0,388.58,413c-1,9.07-1.44,17.33-1.48,23.31,0,3,0,5.41.1,7.08q.07,1.17.12,1.92a3.587,3.587,0,0,0,.08.69Z" fill="#263238"/><path d="M387.44,430.08a12.344,12.344,0,0,0,0-2,52.731,52.731,0,0,0-.62-5.44,75.448,75.448,0,0,0-5.08-17.32A49.92,49.92,0,0,0,372,390.14a23.947,23.947,0,0,0-2.29-2.13c-.35-.3-.66-.59-1-.83l-.88-.61a13.4,13.4,0,0,0-1.7-1.09,60.916,60.916,0,0,1,5.55,4.95,52.731,52.731,0,0,1,9.5,15.12,75.138,75.138,0,0,1,3.33,9.3c.87,2.91,1.45,5.59,1.89,7.85s.65,4.11.8,5.39a14,14,0,0,0,.24,1.99Z" fill="#263238"/><path d="M235.35,298.25h41.87l16.58-46.32h-2.32l-16.44,44.06-39.69.23Z" fill="#455a64"/><path d="M216.85,304.1l1.55,145.09h4.26l-1.73-146.16Z" fill="#b3cfd5"/><path d="M306.47,302.69c-.57,2.77,3.84,146.83,3.84,146.83h4l-3.25-146.83Z" fill="#b3cfd5"/><path d="M355.42,298.25H177.39v7.34h14.69l-9.56,143.13,4.18.23,9.57-143.36H340.44l6.99,143.42h4.19l-6.99-143.42h10.79Z" fill="#b3cfd5"/><path d="M241.62,448.53a7.13,7.13,0,0,0-2.58-4.42,7,7,0,0,0-4.8-1.55l-.06,5.76Z" fill="#f5f5f5"/><path d="M263.48,446.05s6.12,1.84,5.34,2.84-24.3.75-34.67-.27v-.46l27.44.53S262.28,446.09,263.48,446.05Z" fill="#f5f5f5"/><path d="M233.87,448.14h.35l1,.08,3.74.2c3.16.15,7.53.29,12.36.35s9.21,0,12.37-.07l3.75-.11,1-.05h.35a1.351,1.351,0,0,0-.35,0H251.33c-4.82,0-9.2-.18-12.36-.28l-3.75-.12h-1.35Z" fill="#263238"/><path d="M261.62,449a8.229,8.229,0,0,1,.72-1.78,8.091,8.091,0,0,1,1.29-1.42,3.32,3.32,0,0,0-2,3.2Z" fill="#263238"/><path d="M255.57,445.86a2.62,2.62,0,0,0,.66-.79c.3-.47.51-.88.45-.92s-.35.32-.66.79a2.38,2.38,0,0,0-.45.92Z" fill="#263238"/><path d="M253.91,445c.05.05.38-.16.74-.48s.61-.61.56-.66-.37.16-.73.47S253.87,444.91,253.91,445Z" fill="#263238"/><path d="M252.88,443a2.35,2.35,0,0,0,1.07.15,2.46,2.46,0,0,0,1.08-.1,2.349,2.349,0,0,0-1.07-.15,2.489,2.489,0,0,0-1.08.1Z" fill="#263238"/><path d="M252.53,441.63a3.06,3.06,0,0,0,2.44.21Q253.749,441.745,252.53,441.63Z" fill="#263238"/><path d="M256.29,444.07a3.9,3.9,0,0,0,1.33,0,7.378,7.378,0,0,0,1.41-.29,3.837,3.837,0,0,0,.81-.33.67.67,0,0,0,.33-.4.54.54,0,0,0-.19-.54,2.44,2.44,0,0,0-3,.68,2.35,2.35,0,0,0-.45.88v.36a3.47,3.47,0,0,1,.61-1.12,2.35,2.35,0,0,1,1.14-.73,2.07,2.07,0,0,1,1.58.13c.21.16.12.4-.11.54a4.084,4.084,0,0,1-.75.31,9.079,9.079,0,0,1-1.37.34,6.446,6.446,0,0,0-1.34.17Z" fill="#263238"/><path d="M256.63,444.14a1.32,1.32,0,0,0,.17-.92,2.29,2.29,0,0,0-.35-1,1.34,1.34,0,0,0-1.1-.69.52.52,0,0,0-.41.61,1.48,1.48,0,0,0,.21.59,4.749,4.749,0,0,0,.62.81,1.83,1.83,0,0,0,.75.54,8.575,8.575,0,0,1-.62-.66,4.438,4.438,0,0,1-.54-.8c-.18-.28-.3-.79,0-.84s.67.3.87.57a2.3,2.3,0,0,1,.36.86A4,4,0,0,1,256.63,444.14Z" fill="#263238"/><path d="M234.35,442.51a7.911,7.911,0,0,1,1.52.07,6.266,6.266,0,0,1,5.31,4.4c.3.88.33,1.48.37,1.47s0-.15,0-.41a6,6,0,0,0-.21-1.12,6.29,6.29,0,0,0-5.5-4.48,5.1,5.1,0,0,0-1.14,0A.94.94,0,0,0,234.35,442.51Z" fill="#263238"/><path d="M236.58,434a68.943,68.943,0,0,0-.2,8.46,35.063,35.063,0,0,0,.22-4.23,37.72,37.72,0,0,0-.02-4.23Z" fill="#263238"/><path d="M244.24,446.55a11.321,11.321,0,0,0,3,.33,11.191,11.191,0,0,0,3-.21c0-.07-1.35,0-3,0S244.25,446.48,244.24,446.55Z" fill="#263238"/><path d="M240.2,446.5a5.117,5.117,0,0,0,.24.6c.13.31.21.58.28.58s.11-.33-.05-.68S240.25,446.45,240.2,446.5Z" fill="#263238"/><path d="M238.7,444.59a1.031,1.031,0,0,0,.29.48c.21.22.42.36.47.31s-.08-.26-.29-.48S238.75,444.54,238.7,444.59Z" fill="#263238"/><path d="M236.53,443.7c0,.07.29.07.59.18s.52.28.57.23-.11-.33-.49-.46S236.51,443.64,236.53,443.7Z" fill="#263238"/><path d="M235,443.28c0,.06.09.17.26.24s.33.07.35,0-.09-.17-.26-.24S235,443.21,235,443.28Z" fill="#263238"/><path d="M304.25,431.23s6.33-.85,6,.39-21.84,10.68-31.71,14l-.15-.43,25.22-10.81S303.17,431.76,304.25,431.23Z" fill="#f5f5f5"/><path d="M278.11,445.32l.3-.11.89-.35,3.115-1.36c2.616-1.17,6.229-2.83,10.154-4.77s7.466-3.77,10-5.15l3-1.64.81-.47a1.263,1.263,0,0,0,.276-.17l-.294.13-.828.42-3.026,1.58c-2.554,1.32-6.1,3.14-10.029,5.07s-7.528,3.63-10.127,4.84l-3.079,1.43-.836.39Z" transform="translate(3.532)" fill="#263238"/><path d="M303.77,434.69a7.873,7.873,0,0,1-.08-1.92,9.151,9.151,0,0,1,.59-1.83,2.77,2.77,0,0,0-.84,1.79,2.8,2.8,0,0,0,.33,1.96Z" fill="#263238"/><path d="M297,434.3a2.28,2.28,0,0,0,.28-1c.09-.57.1-1,0-1s-.19.43-.28,1A2.06,2.06,0,0,0,297,434.3Z" fill="#263238"/><path d="M295.08,434.17a1.988,1.988,0,0,0,.47-.74c.2-.43.3-.81.24-.84s-.27.3-.47.74S295,434.14,295.08,434.17Z" fill="#263238"/><path d="M293.33,432.81a2.581,2.581,0,0,0,1-.31c.55-.23,1-.47.94-.53a2.15,2.15,0,0,0-1,.3C293.76,432.5,293.3,432.74,293.33,432.81Z" fill="#263238"/><path d="M292.45,431.7a2.13,2.13,0,0,0,1.24-.17,2.08,2.08,0,0,0,1.06-.64,6.69,6.69,0,0,0-1.15.41,6.393,6.393,0,0,0-1.15.4Z" fill="#263238"/><path d="M296.88,432.38a4,4,0,0,0,1.21-.54,8,8,0,0,0,1.16-.85,4.078,4.078,0,0,0,.61-.63.73.73,0,0,0,.13-.51.5.5,0,0,0-.39-.4,2.44,2.44,0,0,0-2.51,2.83.88.88,0,0,0,.11.35,4,4,0,0,1,.1-1.28,2.36,2.36,0,0,1,.74-1.13,2.09,2.09,0,0,1,1.49-.53c.26.05.28.31.12.54a4.329,4.329,0,0,1-.55.59,10.4,10.4,0,0,1-1.11.87C297.32,432.14,296.86,432.34,296.88,432.38Z" fill="#263238"/><path d="M297.22,432.3a1.36,1.36,0,0,0-.23-.9,2.31,2.31,0,0,0-.72-.75,1.34,1.34,0,0,0-1.28-.17.52.52,0,0,0-.13.72,1.35,1.35,0,0,0,.44.45,4.292,4.292,0,0,0,.9.49,1.88,1.88,0,0,0,.91.18,7.477,7.477,0,0,1-.84-.35,4.251,4.251,0,0,1-.83-.5c-.28-.18-.59-.59-.31-.78a1.18,1.18,0,0,1,1,.16,2.15,2.15,0,0,1,.69.64A5.378,5.378,0,0,1,297.22,432.3Z" fill="#263238"/><path d="M286.91,439.6a12,12,0,0,0,2.88-.94,11.083,11.083,0,0,0,2.66-1.43c0-.06-1.23.55-2.76,1.2S286.89,439.53,286.91,439.6Z" fill="#263238"/><path d="M108.51,359.12,93.63,247.93a4.69,4.69,0,0,1,5-5.3l35.87,3a6.78,6.78,0,0,1,6.19,6.21l8.74,105.27Z" fill="#b3cfd5"/><path d="M143.11,195.71c-.3-4.24-1.41-8.37-2-12.57s-.71-8.62.95-12.53a18.27,18.27,0,0,1,10.34-9.46,31.68,31.68,0,0,1,14.18-1.62,6.71,6.71,0,0,1,2.51.57,2.49,2.49,0,0,1,1.43,2,1.55,1.55,0,0,1-1.59,1.62,25.2,25.2,0,0,1,5.37,1.15,3.15,3.15,0,0,1,1.74,1.25,2.39,2.39,0,0,1-.24,2.36,7,7,0,0,1-1.81,1.7,1.66,1.66,0,0,1,1.95,1.31,3.16,3.16,0,0,1-.69,2.47c-.51.72-1.17,1.31-1.7,2-2.16,2.87-1.74,6.86-1.22,10.42" fill="#263238"/><path d="M143.5,220.55l20.21-.36c.27-2.34.66-11.44.66-11.44s8.45-.78,9.07-9.14.36-27.66.36-27.66h0a29.13,29.13,0,0,0-29.44,1.87l-1.3.88Z" fill="#676767"/><path d="M171,186.45a1.21,1.21,0,1,1,.865.364,1.21,1.21,0,0,1-.865-.364Z" fill="#263238"/><path d="M173.13,184.42c-.14.14-.92-.54-2.07-.62s-2,.47-2.15.31.09-.32.47-.58a2.88,2.88,0,0,1,3.37.25C173.09,184.09,173.2,184.36,173.13,184.42Z" fill="#263238"/><path d="M159.79,184.61a1.21,1.21,0,1,1-.9-.206,1.21,1.21,0,0,1,.9.206Z" fill="#263238"/><path d="M159.79,184.61a1.21,1.21,0,1,1-.9-.206,1.21,1.21,0,0,1,.9.206Z" transform="translate(0 18)" fill="#263238"/><path d="M160.55,184.67c-.14.13-.92-.55-2.07-.63s-2,.47-2.14.32.08-.33.47-.58a2.83,2.83,0,0,1,3.36.25C160.51,184.33,160.62,184.61,160.55,184.67Z" fill="#263238"/><path d="M164.59,194.46a5.58,5.58,0,0,1,1.88-.28c.31,0,.55-.07.58-.23a1.71,1.71,0,0,0-.16-.88c-.25-.78-.51-1.57-.77-2.4-1.05-3.41-1.77-6.22-1.59-6.27s1.16,2.67,2.22,6.08c.25.83.48,1.63.72,2.41a2,2,0,0,1,.08,1.27.79.79,0,0,1-.55.45,2.382,2.382,0,0,1-.51,0,5.649,5.649,0,0,1-1.9-.15Z" fill="#263238"/><path d="M160.76,195.5c-1.15-.79,3.2,2,5.55,2a3.17,3.17,0,0,1-3.83,1C160,197.45,160.76,195.5,160.76,195.5Z" fill="#fff"/><path d="M164.4,208.63a19.45,19.45,0,0,1-10.72-3.77s2.21,6.18,10.6,5.94Z" fill="#676767"/><path d="M142.79,181l.43,10.85s3.81-1.16,4.06-1.27-.07-13.29-.07-13.29-.53-5,2.71-6.15c3.41-1.23,4.89,1.24,9.72,2,15.93,2.69,14.84-2.2,14.84-2.2s2-2.15-2.09-4.51-14.32-3.16-19.92-1.23c-11,3.79-11.66,7.56-11.66,10.89C140.81,180.84,142.79,181,142.79,181Z" fill="#263238"/><path d="M144.66,182.12c-.18-.07-6.2-.85-5.63,6.26s7.56,4.19,7.56,4S144.66,182.12,144.66,182.12Z" fill="#676767"/><path d="M144.21,190a2.206,2.206,0,0,1-.32.21,1.25,1.25,0,0,1-.93.09,3,3,0,0,1-1.63-2.63,4.12,4.12,0,0,1,.2-1.81,1.44,1.44,0,0,1,.86-1,.64.64,0,0,1,.76.28c.11.19.07.34.11.35s.14-.14.06-.42a.77.77,0,0,0-.31-.43,1,1,0,0,0-.7-.12,1.74,1.74,0,0,0-1.21,1.2,4.18,4.18,0,0,0-.27,2c.16,1.43,1,2.71,2,2.93a1.34,1.34,0,0,0,1.12-.28C144.21,190.22,144.23,190.05,144.21,190Z" fill="#263238"/><path d="M224.08,278s10-.48,12,.43c3.46,1.51,13.76,17.66,13.24,17.66h-4.77l-16-6.07-3.77.95Z" fill="#676767"/><path d="M267.08,324.37s20.538,100.62,20.608,100.11-8.616,4.8-8.616,4.8l-26.962-63.8Z" fill="#263238"/><path d="M127.49,317.17c.25-5.49-2.87,30.13,24.51,31.07S243.379,343,243.379,343L239.5,433.77h11.2L268.48,343s3.5-27.84-15.55-31.39c-11.92-2.23-86.05-2.94-86.05-2.94Z" fill="#263238"/><path d="M237.7,435.75c-.15,0-.27-.07-.26-.12s.13-.09.28-.07.27.07.27.12S237.85,435.76,237.7,435.75Z" fill="#455a64"/><path d="M165.97,222.5l1.18-.89-1.77-6.19-22.26-2.7.34,4.83a15.87,15.87,0,0,0-7.61,7.24c-8,16.94-4,36.72-8.29,73.37,0,0-5,17.19.16,22.57l48.57-11.32L174,298.33c21.2-.4,56.06-4.3,56.06-4.3l-1-20.06s-52.09.31-53.79.13" fill="#fff"/><path d="M165.34,215.39a16.812,16.812,0,0,1,1.61,4,7,7,0,0,1,.44,1.7,1.2,1.2,0,0,1-.28.83,1.44,1.44,0,0,1-.6.42c-.84.26-1.32.08-1.32,0s.52-.09,1.15-.39a.93.93,0,0,0,.55-.88,10.573,10.573,0,0,0-.46-1.55,17.139,17.139,0,0,1-1.09-4.13Z" fill="#e0e0e0"/><path d="M225.63,278.46a1.592,1.592,0,0,0-.32.77,1,1,0,0,0,.25.73.75.75,0,0,0,.84.11.78.78,0,0,0,.5-.69,1,1,0,0,0-.37-.68c-.39-.31-.76-.21-.78-.29s.37-.36,1,0a1.26,1.26,0,0,1,.66,1,1.24,1.24,0,0,1-.78,1.22,1.26,1.26,0,0,1-1.44-.26,1.28,1.28,0,0,1-.25-1.15C225.12,278.49,225.64,278.39,225.63,278.46Z" fill="#263238"/><path d="M147.91,354.25l6.99,94.87,2.92-.68-1.09-92.19Z" fill="#b3cfd5"/><path d="M118.29,357.55,97.06,449.01h3.84l30.39-91.46Z" fill="#b3cfd5"/><path d="M174.44,357.55l28.96,91.46h3.1l-23.01-91.46Z" fill="#b3cfd5"/><path d="M178.32,363.69l-64.9,42.41v2.32l66.71-44.73Z" fill="#b3cfd5"/><path d="M123.25,363.69l70.32,47.32v-3.62l-68.26-45.77Z" fill="#b3cfd5"/><path d="M108.59,359.12l83.62-1.51a5.35,5.35,0,0,0,5.21-6h0a5.33,5.33,0,0,0-5.39-4.72l-84.81,1.36Z" fill="#b3cfd5"/><path d="M100.07,294.48l8.44,64.64,65.93-1.57-.17-39.26a11,11,0,0,0-12-11.12L112,311.71l-6.62-68.51-6.68-.57a4.7,4.7,0,0,0-5,5.32Z" fill="#b3cfd5"/></g></svg>