<svg xmlns="http://www.w3.org/2000/svg" xmlns:xlink="http://www.w3.org/1999/xlink" width="1031.434" height="900.901" viewBox="0 0 1031.434 900.901"><defs><clipPath id="a"><path d="M745.935,3.832c-98.179,0-182.229,69.915-228.341,118.075C471.477,73.747,387.617,3.832,289.439,3.832c-169.4,0-287.47,117.889-287.47,286.727,0,186.315,146.9,306.624,288.772,422.839,67.126,55.037,136.481,111.75,189.662,174.975a47.332,47.332,0,0,0,35.887,16.361h2.6a47.713,47.713,0,0,0,36.073-16.361C608.147,825.148,677.322,768.435,744.631,713.4,886.508,597.182,1033.4,476.874,1033.4,290.559,1033.4,121.721,915.331,3.832,745.935,3.832Z" fill="#b3cfd5"/></clipPath></defs><g transform="translate(1227.883 -769.012)"><g transform="translate(-1229.852 765.18)" opacity="0.03"><g clip-path="url(#a)"><g transform="translate(1.969 72.346)"><rect width="183.82" height="513.334" transform="translate(599.117 213.095)" fill="#377dff"/><rect width="183.82" height="100.08" transform="translate(599.117 213.095)" fill="#fff"/><path d="M610.01,213.095H782.936V725.748H599.117" fill="none" stroke="#377dff" stroke-miterlimit="10" stroke-width="10.212"/><line x2="150.46" transform="translate(614.775 344.492)" fill="none" stroke="#fff" stroke-miterlimit="10" stroke-width="10.212"/><line x2="150.46" transform="translate(614.775 373.767)" fill="none" stroke="#fff" stroke-miterlimit="10" stroke-width="10.212"/><line x2="150.46" transform="translate(614.775 402.361)" fill="none" stroke="#fff" stroke-miterlimit="10" stroke-width="10.212"/><line x2="150.46" transform="translate(614.775 431.636)" fill="none" stroke="#fff" stroke-miterlimit="10" stroke-width="10.212"/><line x2="150.46" transform="translate(614.775 460.23)" fill="none" stroke="#fff" stroke-miterlimit="10" stroke-width="10.212"/><line x2="150.46" transform="translate(614.775 489.506)" fill="none" stroke="#fff" stroke-miterlimit="10" stroke-width="10.212"/><line x2="150.46" transform="translate(614.775 518.1)" fill="none" stroke="#fff" stroke-miterlimit="10" stroke-width="10.212"/><line x2="150.46" transform="translate(614.775 547.375)" fill="none" stroke="#fff" stroke-miterlimit="10" stroke-width="10.212"/><line x2="150.46" transform="translate(614.775 575.969)" fill="none" stroke="#fff" stroke-miterlimit="10" stroke-width="10.212"/><line x2="150.46" transform="translate(614.775 605.244)" fill="none" stroke="#fff" stroke-miterlimit="10" stroke-width="10.212"/><line x2="150.46" transform="translate(614.775 633.838)" fill="none" stroke="#fff" stroke-miterlimit="10" stroke-width="10.212"/><line x2="150.46" transform="translate(614.775 663.113)" fill="none" stroke="#fff" stroke-miterlimit="10" stroke-width="10.212"/><line x2="150.46" transform="translate(614.775 691.707)" fill="none" stroke="#fff" stroke-miterlimit="10" stroke-width="10.212"/><line y2="70.805" transform="translate(623.626 226.711)" fill="none" stroke="#377dff" stroke-miterlimit="10" stroke-width="10.212"/><line y2="70.805" transform="translate(644.05 226.711)" fill="none" stroke="#377dff" stroke-miterlimit="10" stroke-width="10.212"/><line y2="70.805" transform="translate(663.794 226.711)" fill="none" stroke="#377dff" stroke-miterlimit="10" stroke-width="10.212"/><line y2="70.805" transform="translate(684.218 226.711)" fill="none" stroke="#377dff" stroke-miterlimit="10" stroke-width="10.212"/><line y2="70.805" transform="translate(704.643 226.711)" fill="none" stroke="#377dff" stroke-miterlimit="10" stroke-width="10.212"/><line y2="70.805" transform="translate(724.386 226.711)" fill="none" stroke="#377dff" stroke-miterlimit="10" stroke-width="10.212"/><line y2="70.805" transform="translate(744.811 226.711)" fill="none" stroke="#377dff" stroke-miterlimit="10" stroke-width="10.212"/><line y2="70.805" transform="translate(765.235 226.711)" fill="none" stroke="#377dff" stroke-miterlimit="10" stroke-width="10.212"/><rect width="112.334" height="51.742" transform="translate(469.081 94.633)" fill="#fff"/><rect width="112.334" height="51.742" transform="translate(469.081 94.633)" fill="none" stroke="#377dff" stroke-miterlimit="10" stroke-width="10.212"/><rect width="158.63" height="595.032" transform="translate(445.933 130.036)" fill="#fff"/><line y2="98.718" transform="translate(469.081)" fill="none" stroke="#377dff" stroke-miterlimit="10" stroke-width="10.212"/><line y2="98.718" transform="translate(581.415)" fill="none" stroke="#377dff" stroke-miterlimit="10" stroke-width="10.212"/><line y2="63.997" transform="translate(524.908 29.956)" fill="none" stroke="#377dff" stroke-miterlimit="10" stroke-width="10.212"/><path d="M445.933,730.514V135.482h158.63V727.791" fill="none" stroke="#377dff" stroke-miterlimit="10" stroke-width="10.212"/><line y2="595.032" transform="translate(478.612 135.482)" fill="none" stroke="#377dff" stroke-miterlimit="10" stroke-width="10.212"/><line y2="592.989" transform="translate(568.48 137.525)" fill="none" stroke="#377dff" stroke-miterlimit="10" stroke-width="10.212"/><path d="M248.5,730.514H404.4V184.5H274.368V409.169H248.5Z" fill="#fff"/><path d="M404.4,184.5H274.368V407.808H248.5V730.514" fill="none" stroke="#377dff" stroke-miterlimit="10" stroke-width="10.212"/><path d="M403.042,730.514V151.822l23.148-14.978v593.67" fill="none" stroke="#377dff" stroke-miterlimit="10" stroke-width="10.212"/><line y2="123.908" transform="translate(426.19 19.744)" fill="none" stroke="#377dff" stroke-miterlimit="10" stroke-width="10.212"/><line x2="127.312" transform="translate(274.368 202.202)" fill="none" stroke="#377dff" stroke-miterlimit="10" stroke-width="10.212"/><line x2="127.312" transform="translate(274.368 223.307)" fill="none" stroke="#377dff" stroke-miterlimit="10" stroke-width="10.212"/><line x2="127.312" transform="translate(274.368 245.093)" fill="none" stroke="#377dff" stroke-miterlimit="10" stroke-width="10.212"/><line x2="127.312" transform="translate(274.368 266.198)" fill="none" stroke="#377dff" stroke-miterlimit="10" stroke-width="10.212"/><line x2="127.312" transform="translate(274.368 287.304)" fill="none" stroke="#377dff" stroke-miterlimit="10" stroke-width="10.212"/><line x2="127.312" transform="translate(274.368 308.409)" fill="none" stroke="#377dff" stroke-miterlimit="10" stroke-width="10.212"/><line x2="127.312" transform="translate(274.368 329.514)" fill="none" stroke="#377dff" stroke-miterlimit="10" stroke-width="10.212"/><line x2="127.312" transform="translate(274.368 350.619)" fill="none" stroke="#377dff" stroke-miterlimit="10" stroke-width="10.212"/><line x2="127.312" transform="translate(274.368 372.405)" fill="none" stroke="#377dff" stroke-miterlimit="10" stroke-width="10.212"/><line x2="127.312" transform="translate(274.368 393.511)" fill="none" stroke="#377dff" stroke-miterlimit="10" stroke-width="10.212"/><line x2="127.312" transform="translate(274.368 407.808)" fill="none" stroke="#377dff" stroke-miterlimit="10" stroke-width="10.212"/><line y2="10.212" transform="translate(259.39 419.382)" fill="none" stroke="#377dff" stroke-miterlimit="10" stroke-width="10.212"/><line y2="10.212" transform="translate(274.368 419.382)" fill="none" stroke="#377dff" stroke-miterlimit="10" stroke-width="10.212"/><line y2="10.212" transform="translate(289.346 419.382)" fill="none" stroke="#377dff" stroke-miterlimit="10" stroke-width="10.212"/><line y2="10.212" transform="translate(304.324 419.382)" fill="none" stroke="#377dff" stroke-miterlimit="10" stroke-width="10.212"/><line y2="10.212" transform="translate(319.302 419.382)" fill="none" stroke="#377dff" stroke-miterlimit="10" stroke-width="10.212"/><line y2="10.212" transform="translate(334.28 419.382)" fill="none" stroke="#377dff" stroke-miterlimit="10" stroke-width="10.212"/><line y2="10.212" transform="translate(349.258 419.382)" fill="none" stroke="#377dff" stroke-miterlimit="10" stroke-width="10.212"/><line y2="10.212" transform="translate(364.236 419.382)" fill="none" stroke="#377dff" stroke-miterlimit="10" stroke-width="10.212"/><line y2="10.212" transform="translate(379.214 419.382)" fill="none" stroke="#377dff" stroke-miterlimit="10" stroke-width="10.212"/><line y2="10.212" transform="translate(394.191 419.382)" fill="none" stroke="#377dff" stroke-miterlimit="10" stroke-width="10.212"/><line y2="10.212" transform="translate(259.39 440.487)" fill="none" stroke="#377dff" stroke-miterlimit="10" stroke-width="10.212"/><line y2="10.212" transform="translate(274.368 440.487)" fill="none" stroke="#377dff" stroke-miterlimit="10" stroke-width="10.212"/><line y2="10.212" transform="translate(289.346 440.487)" fill="none" stroke="#377dff" stroke-miterlimit="10" stroke-width="10.212"/><line y2="10.212" transform="translate(304.324 440.487)" fill="none" stroke="#377dff" stroke-miterlimit="10" stroke-width="10.212"/><line y2="10.212" transform="translate(319.302 440.487)" fill="none" stroke="#377dff" stroke-miterlimit="10" stroke-width="10.212"/><line y2="10.212" transform="translate(334.28 440.487)" fill="none" stroke="#377dff" stroke-miterlimit="10" stroke-width="10.212"/><line y2="10.212" transform="translate(349.258 440.487)" fill="none" stroke="#377dff" stroke-miterlimit="10" stroke-width="10.212"/><line y2="10.212" transform="translate(364.236 440.487)" fill="none" stroke="#377dff" stroke-miterlimit="10" stroke-width="10.212"/><line y2="10.212" transform="translate(379.214 440.487)" fill="none" stroke="#377dff" stroke-miterlimit="10" stroke-width="10.212"/><line y2="10.212" transform="translate(394.191 440.487)" fill="none" stroke="#377dff" stroke-miterlimit="10" stroke-width="10.212"/><line y2="10.212" transform="translate(259.39 461.592)" fill="none" stroke="#377dff" stroke-miterlimit="10" stroke-width="10.212"/><line y2="10.212" transform="translate(274.368 461.592)" fill="none" stroke="#377dff" stroke-miterlimit="10" stroke-width="10.212"/><line y2="10.212" transform="translate(289.346 461.592)" fill="none" stroke="#377dff" stroke-miterlimit="10" stroke-width="10.212"/><line y2="10.212" transform="translate(304.324 461.592)" fill="none" stroke="#377dff" stroke-miterlimit="10" stroke-width="10.212"/><line y2="10.212" transform="translate(319.302 461.592)" fill="none" stroke="#377dff" stroke-miterlimit="10" stroke-width="10.212"/><line y2="10.212" transform="translate(334.28 461.592)" fill="none" stroke="#377dff" stroke-miterlimit="10" stroke-width="10.212"/><line y2="10.212" transform="translate(349.258 461.592)" fill="none" stroke="#377dff" stroke-miterlimit="10" stroke-width="10.212"/><line y2="10.212" transform="translate(364.236 461.592)" fill="none" stroke="#377dff" stroke-miterlimit="10" stroke-width="10.212"/><line y2="10.212" transform="translate(379.214 461.592)" fill="none" stroke="#377dff" stroke-miterlimit="10" stroke-width="10.212"/><line y2="10.212" transform="translate(394.191 461.592)" fill="none" stroke="#377dff" stroke-miterlimit="10" stroke-width="10.212"/><line y2="10.212" transform="translate(259.39 482.697)" fill="none" stroke="#377dff" stroke-miterlimit="10" stroke-width="10.212"/><line y2="10.212" transform="translate(274.368 482.697)" fill="none" stroke="#377dff" stroke-miterlimit="10" stroke-width="10.212"/><line y2="10.212" transform="translate(289.346 482.697)" fill="none" stroke="#377dff" stroke-miterlimit="10" stroke-width="10.212"/><line y2="10.212" transform="translate(304.324 482.697)" fill="none" stroke="#377dff" stroke-miterlimit="10" stroke-width="10.212"/><line y2="10.212" transform="translate(319.302 482.697)" fill="none" stroke="#377dff" stroke-miterlimit="10" stroke-width="10.212"/><line y2="10.212" transform="translate(334.28 482.697)" fill="none" stroke="#377dff" stroke-miterlimit="10" stroke-width="10.212"/><line y2="10.212" transform="translate(349.258 482.697)" fill="none" stroke="#377dff" stroke-miterlimit="10" stroke-width="10.212"/><line y2="10.212" transform="translate(364.236 482.697)" fill="none" stroke="#377dff" stroke-miterlimit="10" stroke-width="10.212"/><line y2="10.212" transform="translate(379.214 482.697)" fill="none" stroke="#377dff" stroke-miterlimit="10" stroke-width="10.212"/><line y2="10.212" transform="translate(394.191 482.697)" fill="none" stroke="#377dff" stroke-miterlimit="10" stroke-width="10.212"/><line y2="10.212" transform="translate(259.39 503.803)" fill="none" stroke="#377dff" stroke-miterlimit="10" stroke-width="10.212"/><line y2="10.212" transform="translate(274.368 503.803)" fill="none" stroke="#377dff" stroke-miterlimit="10" stroke-width="10.212"/><line y2="10.212" transform="translate(289.346 503.803)" fill="none" stroke="#377dff" stroke-miterlimit="10" stroke-width="10.212"/><line y2="10.212" transform="translate(304.324 503.803)" fill="none" stroke="#377dff" stroke-miterlimit="10" stroke-width="10.212"/><line y2="10.212" transform="translate(319.302 503.803)" fill="none" stroke="#377dff" stroke-miterlimit="10" stroke-width="10.212"/><line y2="10.212" transform="translate(334.28 503.803)" fill="none" stroke="#377dff" stroke-miterlimit="10" stroke-width="10.212"/><line y2="10.212" transform="translate(349.258 503.803)" fill="none" stroke="#377dff" stroke-miterlimit="10" stroke-width="10.212"/><line y2="10.212" transform="translate(364.236 503.803)" fill="none" stroke="#377dff" stroke-miterlimit="10" stroke-width="10.212"/><line y2="10.212" transform="translate(379.214 503.803)" fill="none" stroke="#377dff" stroke-miterlimit="10" stroke-width="10.212"/><line y2="10.212" transform="translate(394.191 503.803)" fill="none" stroke="#377dff" stroke-miterlimit="10" stroke-width="10.212"/><line y2="10.212" transform="translate(259.39 524.908)" fill="none" stroke="#377dff" stroke-miterlimit="10" stroke-width="10.212"/><line y2="10.212" transform="translate(274.368 524.908)" fill="none" stroke="#377dff" stroke-miterlimit="10" stroke-width="10.212"/><line y2="10.212" transform="translate(289.346 524.908)" fill="none" stroke="#377dff" stroke-miterlimit="10" stroke-width="10.212"/><line y2="10.212" transform="translate(304.324 524.908)" fill="none" stroke="#377dff" stroke-miterlimit="10" stroke-width="10.212"/><line y2="10.212" transform="translate(319.302 524.908)" fill="none" stroke="#377dff" stroke-miterlimit="10" stroke-width="10.212"/><line y2="10.212" transform="translate(334.28 524.908)" fill="none" stroke="#377dff" stroke-miterlimit="10" stroke-width="10.212"/><line y2="10.212" transform="translate(349.258 524.908)" fill="none" stroke="#377dff" stroke-miterlimit="10" stroke-width="10.212"/><line y2="10.212" transform="translate(364.236 524.908)" fill="none" stroke="#377dff" stroke-miterlimit="10" stroke-width="10.212"/><line y2="10.212" transform="translate(379.214 524.908)" fill="none" stroke="#377dff" stroke-miterlimit="10" stroke-width="10.212"/><line y2="10.212" transform="translate(394.191 524.908)" fill="none" stroke="#377dff" stroke-miterlimit="10" stroke-width="10.212"/><line y2="10.212" transform="translate(259.39 546.013)" fill="none" stroke="#377dff" stroke-miterlimit="10" stroke-width="10.212"/><line y2="10.212" transform="translate(274.368 546.013)" fill="none" stroke="#377dff" stroke-miterlimit="10" stroke-width="10.212"/><line y2="10.212" transform="translate(289.346 546.013)" fill="none" stroke="#377dff" stroke-miterlimit="10" stroke-width="10.212"/><line y2="10.212" transform="translate(304.324 546.013)" fill="none" stroke="#377dff" stroke-miterlimit="10" stroke-width="10.212"/><line y2="10.212" transform="translate(319.302 546.013)" fill="none" stroke="#377dff" stroke-miterlimit="10" stroke-width="10.212"/><line y2="10.212" transform="translate(334.28 546.013)" fill="none" stroke="#377dff" stroke-miterlimit="10" stroke-width="10.212"/><line y2="10.212" transform="translate(349.258 546.013)" fill="none" stroke="#377dff" stroke-miterlimit="10" stroke-width="10.212"/><line y2="10.212" transform="translate(364.236 546.013)" fill="none" stroke="#377dff" stroke-miterlimit="10" stroke-width="10.212"/><line y2="10.212" transform="translate(379.214 546.013)" fill="none" stroke="#377dff" stroke-miterlimit="10" stroke-width="10.212"/><line y2="10.212" transform="translate(394.191 546.013)" fill="none" stroke="#377dff" stroke-miterlimit="10" stroke-width="10.212"/><line y2="10.212" transform="translate(259.39 567.118)" fill="none" stroke="#377dff" stroke-miterlimit="10" stroke-width="10.212"/><line y2="10.212" transform="translate(274.368 567.118)" fill="none" stroke="#377dff" stroke-miterlimit="10" stroke-width="10.212"/><line y2="10.212" transform="translate(289.346 567.118)" fill="none" stroke="#377dff" stroke-miterlimit="10" stroke-width="10.212"/><line y2="10.212" transform="translate(304.324 567.118)" fill="none" stroke="#377dff" stroke-miterlimit="10" stroke-width="10.212"/><line y2="10.212" transform="translate(319.302 567.118)" fill="none" stroke="#377dff" stroke-miterlimit="10" stroke-width="10.212"/><line y2="10.212" transform="translate(334.28 567.118)" fill="none" stroke="#377dff" stroke-miterlimit="10" stroke-width="10.212"/><line y2="10.212" transform="translate(349.258 567.118)" fill="none" stroke="#377dff" stroke-miterlimit="10" stroke-width="10.212"/><line y2="10.212" transform="translate(364.236 567.118)" fill="none" stroke="#377dff" stroke-miterlimit="10" stroke-width="10.212"/><line y2="10.212" transform="translate(379.214 567.118)" fill="none" stroke="#377dff" stroke-miterlimit="10" stroke-width="10.212"/><line y2="10.212" transform="translate(394.191 567.118)" fill="none" stroke="#377dff" stroke-miterlimit="10" stroke-width="10.212"/><line y2="10.212" transform="translate(259.39 588.224)" fill="none" stroke="#377dff" stroke-miterlimit="10" stroke-width="10.212"/><line y2="10.212" transform="translate(274.368 588.224)" fill="none" stroke="#377dff" stroke-miterlimit="10" stroke-width="10.212"/><line y2="10.212" transform="translate(289.346 588.224)" fill="none" stroke="#377dff" stroke-miterlimit="10" stroke-width="10.212"/><line y2="10.212" transform="translate(304.324 588.224)" fill="none" stroke="#377dff" stroke-miterlimit="10" stroke-width="10.212"/><line y2="10.212" transform="translate(319.302 588.224)" fill="none" stroke="#377dff" stroke-miterlimit="10" stroke-width="10.212"/><line y2="10.212" transform="translate(334.28 588.224)" fill="none" stroke="#377dff" stroke-miterlimit="10" stroke-width="10.212"/><line y2="10.212" transform="translate(349.258 588.224)" fill="none" stroke="#377dff" stroke-miterlimit="10" stroke-width="10.212"/><line y2="10.212" transform="translate(364.236 588.224)" fill="none" stroke="#377dff" stroke-miterlimit="10" stroke-width="10.212"/><line y2="10.212" transform="translate(379.214 588.224)" fill="none" stroke="#377dff" stroke-miterlimit="10" stroke-width="10.212"/><line y2="10.212" transform="translate(394.191 588.224)" fill="none" stroke="#377dff" stroke-miterlimit="10" stroke-width="10.212"/><line y2="10.212" transform="translate(259.39 609.329)" fill="none" stroke="#377dff" stroke-miterlimit="10" stroke-width="10.212"/><line y2="10.212" transform="translate(274.368 609.329)" fill="none" stroke="#377dff" stroke-miterlimit="10" stroke-width="10.212"/><line y2="10.212" transform="translate(289.346 609.329)" fill="none" stroke="#377dff" stroke-miterlimit="10" stroke-width="10.212"/><line y2="10.212" transform="translate(304.324 609.329)" fill="none" stroke="#377dff" stroke-miterlimit="10" stroke-width="10.212"/><line y2="10.212" transform="translate(319.302 609.329)" fill="none" stroke="#377dff" stroke-miterlimit="10" stroke-width="10.212"/><line y2="10.212" transform="translate(334.28 609.329)" fill="none" stroke="#377dff" stroke-miterlimit="10" stroke-width="10.212"/><line y2="10.212" transform="translate(349.258 609.329)" fill="none" stroke="#377dff" stroke-miterlimit="10" stroke-width="10.212"/><line y2="10.212" transform="translate(364.236 609.329)" fill="none" stroke="#377dff" stroke-miterlimit="10" stroke-width="10.212"/><line y2="10.212" transform="translate(379.214 609.329)" fill="none" stroke="#377dff" stroke-miterlimit="10" stroke-width="10.212"/><line y2="10.212" transform="translate(394.191 609.329)" fill="none" stroke="#377dff" stroke-miterlimit="10" stroke-width="10.212"/><line y2="10.212" transform="translate(259.39 630.434)" fill="none" stroke="#377dff" stroke-miterlimit="10" stroke-width="10.212"/><line y2="10.212" transform="translate(274.368 630.434)" fill="none" stroke="#377dff" stroke-miterlimit="10" stroke-width="10.212"/><line y2="10.212" transform="translate(289.346 630.434)" fill="none" stroke="#377dff" stroke-miterlimit="10" stroke-width="10.212"/><line y2="10.212" transform="translate(304.324 630.434)" fill="none" stroke="#377dff" stroke-miterlimit="10" stroke-width="10.212"/><line y2="10.212" transform="translate(319.302 630.434)" fill="none" stroke="#377dff" stroke-miterlimit="10" stroke-width="10.212"/><line y2="10.212" transform="translate(334.28 630.434)" fill="none" stroke="#377dff" stroke-miterlimit="10" stroke-width="10.212"/><line y2="10.212" transform="translate(349.258 630.434)" fill="none" stroke="#377dff" stroke-miterlimit="10" stroke-width="10.212"/><line y2="10.212" transform="translate(364.236 630.434)" fill="none" stroke="#377dff" stroke-miterlimit="10" stroke-width="10.212"/><line y2="10.212" transform="translate(379.214 630.434)" fill="none" stroke="#377dff" stroke-miterlimit="10" stroke-width="10.212"/><line y2="10.212" transform="translate(394.191 630.434)" fill="none" stroke="#377dff" stroke-miterlimit="10" stroke-width="10.212"/><line y2="10.212" transform="translate(259.39 651.539)" fill="none" stroke="#377dff" stroke-miterlimit="10" stroke-width="10.212"/><line y2="10.212" transform="translate(274.368 651.539)" fill="none" stroke="#377dff" stroke-miterlimit="10" stroke-width="10.212"/><line y2="10.212" transform="translate(289.346 651.539)" fill="none" stroke="#377dff" stroke-miterlimit="10" stroke-width="10.212"/><line y2="10.212" transform="translate(304.324 651.539)" fill="none" stroke="#377dff" stroke-miterlimit="10" stroke-width="10.212"/><line y2="10.212" transform="translate(319.302 651.539)" fill="none" stroke="#377dff" stroke-miterlimit="10" stroke-width="10.212"/><line y2="10.212" transform="translate(334.28 651.539)" fill="none" stroke="#377dff" stroke-miterlimit="10" stroke-width="10.212"/><line y2="10.212" transform="translate(349.258 651.539)" fill="none" stroke="#377dff" stroke-miterlimit="10" stroke-width="10.212"/><line y2="10.212" transform="translate(364.236 651.539)" fill="none" stroke="#377dff" stroke-miterlimit="10" stroke-width="10.212"/><line y2="10.212" transform="translate(379.214 651.539)" fill="none" stroke="#377dff" stroke-miterlimit="10" stroke-width="10.212"/><line y2="10.212" transform="translate(394.191 651.539)" fill="none" stroke="#377dff" stroke-miterlimit="10" stroke-width="10.212"/><line y2="10.212" transform="translate(259.39 672.645)" fill="none" stroke="#377dff" stroke-miterlimit="10" stroke-width="10.212"/><line y2="10.212" transform="translate(274.368 672.645)" fill="none" stroke="#377dff" stroke-miterlimit="10" stroke-width="10.212"/><line y2="10.212" transform="translate(289.346 672.645)" fill="none" stroke="#377dff" stroke-miterlimit="10" stroke-width="10.212"/><line y2="10.212" transform="translate(304.324 672.645)" fill="none" stroke="#377dff" stroke-miterlimit="10" stroke-width="10.212"/><line y2="10.212" transform="translate(319.302 672.645)" fill="none" stroke="#377dff" stroke-miterlimit="10" stroke-width="10.212"/><line y2="10.212" transform="translate(334.28 672.645)" fill="none" stroke="#377dff" stroke-miterlimit="10" stroke-width="10.212"/><line y2="10.212" transform="translate(349.258 672.645)" fill="none" stroke="#377dff" stroke-miterlimit="10" stroke-width="10.212"/><line y2="10.212" transform="translate(364.236 672.645)" fill="none" stroke="#377dff" stroke-miterlimit="10" stroke-width="10.212"/><line y2="10.212" transform="translate(379.214 672.645)" fill="none" stroke="#377dff" stroke-miterlimit="10" stroke-width="10.212"/><line y2="10.212" transform="translate(394.191 672.645)" fill="none" stroke="#377dff" stroke-miterlimit="10" stroke-width="10.212"/><line y2="10.212" transform="translate(259.39 693.75)" fill="none" stroke="#377dff" stroke-miterlimit="10" stroke-width="10.212"/><line y2="10.212" transform="translate(274.368 693.75)" fill="none" stroke="#377dff" stroke-miterlimit="10" stroke-width="10.212"/><line y2="10.212" transform="translate(289.346 693.75)" fill="none" stroke="#377dff" stroke-miterlimit="10" stroke-width="10.212"/><line y2="10.212" transform="translate(304.324 693.75)" fill="none" stroke="#377dff" stroke-miterlimit="10" stroke-width="10.212"/><line y2="10.212" transform="translate(319.302 693.75)" fill="none" stroke="#377dff" stroke-miterlimit="10" stroke-width="10.212"/><line y2="10.212" transform="translate(334.28 693.75)" fill="none" stroke="#377dff" stroke-miterlimit="10" stroke-width="10.212"/><line y2="10.212" transform="translate(349.258 693.75)" fill="none" stroke="#377dff" stroke-miterlimit="10" stroke-width="10.212"/><line y2="10.212" transform="translate(364.236 693.75)" fill="none" stroke="#377dff" stroke-miterlimit="10" stroke-width="10.212"/><line y2="10.212" transform="translate(379.214 693.75)" fill="none" stroke="#377dff" stroke-miterlimit="10" stroke-width="10.212"/><line y2="10.212" transform="translate(394.191 693.75)" fill="none" stroke="#377dff" stroke-miterlimit="10" stroke-width="10.212"/><line y2="9.531" transform="translate(259.39 715.536)" fill="none" stroke="#377dff" stroke-miterlimit="10" stroke-width="10.212"/><line y2="9.531" transform="translate(274.368 715.536)" fill="none" stroke="#377dff" stroke-miterlimit="10" stroke-width="10.212"/><line y2="9.531" transform="translate(289.346 715.536)" fill="none" stroke="#377dff" stroke-miterlimit="10" stroke-width="10.212"/><line y2="9.531" transform="translate(304.324 715.536)" fill="none" stroke="#377dff" stroke-miterlimit="10" stroke-width="10.212"/><line y2="9.531" transform="translate(319.302 715.536)" fill="none" stroke="#377dff" stroke-miterlimit="10" stroke-width="10.212"/><line y2="9.531" transform="translate(334.28 715.536)" fill="none" stroke="#377dff" stroke-miterlimit="10" stroke-width="10.212"/><line y2="9.531" transform="translate(349.258 715.536)" fill="none" stroke="#377dff" stroke-miterlimit="10" stroke-width="10.212"/><line y2="9.531" transform="translate(364.236 715.536)" fill="none" stroke="#377dff" stroke-miterlimit="10" stroke-width="10.212"/><line y2="9.531" transform="translate(379.214 715.536)" fill="none" stroke="#377dff" stroke-miterlimit="10" stroke-width="10.212"/><line y2="9.531" transform="translate(394.191 715.536)" fill="none" stroke="#377dff" stroke-miterlimit="10" stroke-width="10.212"/><rect width="1031.434" height="32.679" transform="translate(0 731.195)" fill="#377dff"/><path d="M808.807,731.195v-486.1L954.5,350.619V730.514Z" fill="#377dff"/><path d="M222.626,731.195v-486.1L76.932,350.619V730.514Z" fill="#377dff"/></g></g></g><path d="M599.238,857.222l10.537,0L611,753.429c-12.829-1.047-21.953-1.928-21.953-1.928l3.875,90.77h-7.68q-2.2-2.285-4.414-4.558l-8.69-44.377L561.508,818.5q-5.671-5.48-11.461-10.91c6.106-29.66,15.3-74.717,15.3-74.717l.2.55c1.994-6.14,6.016-11.831,13.95-13.31,4.415-.826,17.365-1.444,31.92-1.894l.049-4.126H526.007c-.052,9.359-.85,39.624-1.71,70q-2.223-1.977-4.454-3.945l1.462-66.058H491.989l-1.965,40.315q-2.011-1.7-4.024-3.4l1.8-36.915h-10.79v-7.34h78.2l-16.58-46.32h2.32l16.439,44.06,39.69.229v2.03h57.96v7.34h-14.69l.229,3.437c6.014-.108,11.443-.189,15.691-.247l2.16-10.451c-21.2-.4-56.06-4.3-56.06-4.3l.175-3.5-14.665,5.564h-4.77c-.52,0,9.78-16.151,13.24-17.661,1.009-.459,4.055-.564,6.826-.555l.194-3.9s52.09.31,53.79.13l9.3-51.6-.068-.05a3.13,3.13,0,0,1-.473-.11,1.441,1.441,0,0,1-.6-.419,1.2,1.2,0,0,1-.28-.831,6.993,6.993,0,0,1,.44-1.7,16.829,16.829,0,0,1,1.546-3.884l.024-.086.025,0,.014-.027a.2.2,0,0,1,0,.025l1.291-.156c-.087-1.588-.167-3.225-.224-4.459h0l-.114-2.052c-.494-.054-8.445-1.038-9.046-9.138-.3-4.04-.393-10.634-.41-16.372-.152.039-.305.072-.462.1a21.058,21.058,0,0,1-2.1.3,6.837,6.837,0,0,1-6.9-6.6,7.565,7.565,0,0,1,1.3-5.3,8.04,8.04,0,0,1,5.2-3.4,2.5,2.5,0,0,1-1-3.4,2.743,2.743,0,0,1,2.1-1.5,3.653,3.653,0,0,1,2.318,1.151,25.124,25.124,0,0,1,4.464-.869,1.551,1.551,0,0,1-1.59-1.62,2.49,2.49,0,0,1,1.43-2,6.71,6.71,0,0,1,2.51-.571,31.692,31.692,0,0,1,14.18,1.62,18.273,18.273,0,0,1,10.34,9.46,15.579,15.579,0,0,1,.736,2.178,8.266,8.266,0,0,1,.511,2.979,31.392,31.392,0,0,1-.256,7.065c1.252.8,2.29,2.4,2.038,5.549-.275,3.431-2.045,4.526-3.8,4.72-.119.867-.215,1.736-.277,2.61l-.15-.048L689,621.257l.305-.037-.34,4.83a15.873,15.873,0,0,1,7.61,7.24c2.942,6.23,4.261,12.843,4.966,20.538l28.644-2.395,3.539-.3c.115-.008.23-.013.345-.013a4.69,4.69,0,0,1,4.726,5.313l-14.881,111.19-.079,0v0l-9.375-.169L729.8,833.51q-2.346,2.374-4.664,4.756l-7.37-22.18L682.34,792.334l-4.784,64.92c10.476.007,20.4.016,29.673.026l-.4.438c-30.03.03-66.886.049-107.095.053Zm47.785-43.2,2.885,43.2-.277.015,26.314.015-1.336-.311.733-61.979Zm-5.366,3.611-12.539,39.6,16.6.006-2.7-40.516Zm-27.624,39.6,11.967,0L641.58,795.3l-1.951-29.234a5.366,5.366,0,0,1-.7-10.5l-.007-.109c-8.274-.518-16.484-1.123-23.782-1.7ZM682.5,790.143l-.042.573,34.33,22.433-12.514-37.659Zm-36.213,12.863.5,7.565L675.384,791.4l.044-3.7-20.039-13.437Zm36.485-16.561,20.561-13.786-1.808-5.44-17.313-.313Zm-27.06-13.206,19.733,12.9.229-19.383-17.806-.322Zm-10.819,8.892,3.991-15.864-5.056-.091ZM615.521,718.1c6.987-.2,14.187-.359,20.873-.489l-.235-3.515h-20.6Zm39.2-133.757a1.845,1.845,0,0,0,1.8,1.7,1.27,1.27,0,0,0,.9-.4,2.589,2.589,0,0,0,.744-2.014,12.276,12.276,0,0,1-.983-1.164l-.059-.075C654.95,582.838,654.718,583.9,654.718,584.339Zm-60.337,267.6a7,7,0,0,1,3.808-.878l.053,5.069Q596.323,854.031,594.38,851.939Zm-.247-.266a6.283,6.283,0,0,1,2.456-.732,5.023,5.023,0,0,1,1.139,0,.93.93,0,0,1,.35.07,7.9,7.9,0,0,0-1.52.069,6.645,6.645,0,0,0-2.3.733Zm1.7-4.942a37.906,37.906,0,0,1,.02-4.23,68.938,68.938,0,0,1,.2,8.46A35.153,35.153,0,0,1,595.829,846.731Zm-1.39-2.55c0-.05.12-.1.27-.121s.27.021.28.07-.11.12-.26.12l-.06,0C594.544,844.253,594.439,844.224,594.439,844.181Zm-94.4-141.289a4.149,4.149,0,0,1-4.234-3.59l-3.519-24.1a1.634,1.634,0,0,1,1.62-1.879H519.69a1.645,1.645,0,0,1,1.633,1.867l-.423,3.063h2.322a4.956,4.956,0,0,1,4.878,5.62l-.93,6.575a4.946,4.946,0,0,1-4.878,4.234H518.63l-.643,4.624a4.291,4.291,0,0,1-4.221,3.59Zm19.05-11.5h3.207a1.629,1.629,0,0,0,1.625-1.411l.931-6.575a1.6,1.6,0,0,0-1.626-1.873H520.45Zm-114.937-7.949Q394.5,675.5,384.886,667.5a24.352,24.352,0,0,1-1.923-11.649,2.719,2.719,0,0,1-1.7.6,1.561,1.561,0,0,1-1.3-.8,5.429,5.429,0,0,1,.1-4.5,31.64,31.64,0,0,1,3.7-5.1c.2-.3.5-.6.7-.9a19.459,19.459,0,0,1,16.2-7.7h.4a39.721,39.721,0,0,1,14.222,2.694,67.22,67.22,0,0,1,6.079-5.293c3.3-2.4,5.1,2.4,3.7,4.7a23.042,23.042,0,0,1-3.574,4.129c.158.122.316.246.473.371a19.33,19.33,0,0,1,7.2,12.5,22.9,22.9,0,0,1-.1,7.4,25.068,25.068,0,0,1-6.5,13.1,20.929,20.929,0,0,1-15,6.7A18.938,18.938,0,0,1,404.148,683.443Zm-13.086-35.894a17.887,17.887,0,0,0-3.1,12.7c1.1,8.3,9.5,18.3,18.6,18.8h.8c9.7,0,17-9.9,17.1-18.7a14.248,14.248,0,0,0-6.8-12.616c-4.034,5.126-6.69,11.321-11.2,16.016-5.3,5.5-9.9,3.3-14-2.3-1.6-2.2-3.7-5.5-.4-7.4,3.9-2.3,6.2,3.5,8.2,5.7,3.9-3.6,6-8.9,9.3-13.1q.737-.976,1.512-1.915a38.5,38.5,0,0,0-5.912-1.285c-1.4-.1-2.8-.2-4.3-.3C396.363,643.149,393.162,644.549,391.063,647.549Zm121.473,22.283a1.645,1.645,0,0,1-.814-1.444V665.1a1.642,1.642,0,0,1,2.8-1.191,1.672,1.672,0,0,1,.482,1.191v3.284a1.643,1.643,0,0,1-2.471,1.444Zm-6.569,0a1.65,1.65,0,0,1-.82-1.444v-4.93a1.651,1.651,0,0,1,1.62-1.665,1.644,1.644,0,0,1,1.665,1.665v4.93a1.641,1.641,0,0,1-1.642,1.668A1.621,1.621,0,0,1,505.967,669.832Zm-6.575,0a1.642,1.642,0,0,1-.813-1.444V666.75a1.645,1.645,0,0,1,1.613-1.671,1.643,1.643,0,0,1,1.671,1.671v1.639a1.643,1.643,0,0,1-2.471,1.444Zm472.42-46.226v-6.89h-6.9v6.89h-6.89V609.827H944.24v6.89h-6.9V602.924h6.9v-6.89h-6.9v-6.889h6.9v6.889h13.779v-6.889h24.127v6.889h6.889v12.95l-.92.844h-5.97v5.437l-1.607,1.452H978.7v1.656c-1.95,1.754-3.89,3.488-5.853,5.234Zm0-6.89h3.445v-6.89h-3.445Zm-13.793-6.89h6.89v-6.9h-6.89Zm6.89-6.9h6.9v-6.89h-6.9ZM944.24,623.606v-6.89h6.89v6.89Zm-44.81,0V592.59h31.017v31.017Zm6.889-6.89h17.238V599.479H906.319Zm3.445-3.445V602.924h10.348v10.348ZM704.156,605.7c-1.491,0-2.543-.878-2.6-3.346-.1-5.1,12.4-9.8,17.7-10.6,15.4-2.2,30.5,5.3,45.6,6.7.523.037,1.715.015,3.248-.007,6.672-.1,19.778-.192,12.052,4.607-5.3,3.3-17.1,1.8-23.2,1-13.2-1.7-29.6-9.9-42.3-3.6-1.59.83-7.15,5.246-10.494,5.246ZM566.617,591.539a12.1,12.1,0,0,1-2.6-7.1c-.1-3.9,2.1-8.2,8.4-8.4h.1a1.656,1.656,0,0,1,1.2.5,2.172,2.172,0,0,0,.8.5,3.325,3.325,0,0,0,.6-.3l.1-.1a3.539,3.539,0,0,1,.9-.4c2.7.2,4.4.7,5.9,2.9a8.9,8.9,0,0,1,1.2,3.9,13.076,13.076,0,0,1-.7,4.4c-1.1,3.3-3.4,5.9-5.9,6.8a8.7,8.7,0,0,1-10-2.7Zm7.6-10.7a3.364,3.364,0,0,1-1.7.5c-2.2,0-3.4,1.2-3.4,3.1a6.672,6.672,0,0,0,1.4,3.6,4.422,4.422,0,0,0,3.3,1.8,3.72,3.72,0,0,0,2.8-1.3,6.475,6.475,0,0,0,1.7-3.4c.2-.9.5-2.6-.4-3.7a1.548,1.548,0,0,0-1.1-.7c-.2,0-.5-.1-.7-.1-.3,0-.6-.1-.9-.1A1.933,1.933,0,0,0,574.217,580.838Zm33.9,12.1h-.2a7.391,7.391,0,0,1-5.5-2.6,8.9,8.9,0,0,1-2-6.8c.5-4.4,3.3-6.8,8.6-7.5.3,0,.7-.1,1-.1a5.6,5.6,0,0,1,4.2,1.8,9.078,9.078,0,0,1,2,6.7,9.576,9.576,0,0,1-2.3,5.8,6.88,6.88,0,0,1-5.485,2.707C608.327,592.946,608.223,592.943,608.117,592.939Zm-2.2-7.6a2.56,2.56,0,0,0,2.4,2.1,2.9,2.9,0,0,0,.9-.2,4.532,4.532,0,0,0,2-2.7,1.745,1.745,0,0,0-.3-1.7v.1h-.2a14.363,14.363,0,0,1-2.2-.4c-.7-.2-1.3-.3-1.5-.4l-.1-.1A2.946,2.946,0,0,0,605.917,585.338Zm-135.3,3.02a3.9,3.9,0,0,1-3.875-3.88V531.185a3.9,3.9,0,0,1,3.875-3.875h53.293a3.9,3.9,0,0,1,3.881,3.875v53.294a3.9,3.9,0,0,1-3.881,3.88Zm-.967-57.173v53.294a.967.967,0,0,0,.967.973h53.293a.972.972,0,0,0,.973-.973V531.185a.967.967,0,0,0-.973-.968H470.614A.962.962,0,0,0,469.647,531.185ZM968.352,585.7v-6.889h-6.889V585.7H951.129v-6.889h-6.89V585.7H927v-6.889h-6.89V585.7H906.319v-6.889h-6.889v-6.9h6.889v6.9h6.89v-6.9H944.24V561.573h-6.9V547.78h6.9V540.89h-6.9V534h6.9v6.89h6.89v13.793h-6.89v6.889h6.89v10.334h17.223v6.9h6.9v-6.9h6.89v6.9h6.889V585.7ZM586.717,565.239c-.942-3.611,7.417-3.4,12.8-3.193,1.475.058,2.727.114,3.5.094,8.3-.2,16.7-.9,25-1.7,2-.2,2.5,2.2,1.4,3.4-1.1,1.3-4.7,1.1-6.2,1.3-4.2.5-8.4,1-12.7,1.3-2.141.17-9.075,1.005-14.917,1.005C591.072,567.444,587.2,566.942,586.717,565.239Zm-275.234.237L298.529,558.3a1.49,1.49,0,0,1-.784-1.3V542.651a1.49,1.49,0,0,1,.784-1.3l12.954-7.168a1.666,1.666,0,0,1,1.569,0l12.954,7.168a1.49,1.49,0,0,1,.784,1.3V557a1.49,1.49,0,0,1-.784,1.3l-12.954,7.178a1.687,1.687,0,0,1-1.569,0Zm66.01-.123-12.954-7.179a1.512,1.512,0,0,1-.784-1.33V542.558a1.526,1.526,0,0,1,.784-1.33l12.954-7.168a1.664,1.664,0,0,1,1.568,0l12.955,7.168a1.532,1.532,0,0,1,.784,1.341v4.961a1.3,1.3,0,0,1-.629,1.1l-6.333,3.672a.669.669,0,0,1-.639.01.649.649,0,0,1-.32-.557v-5.312a.657.657,0,0,0-.35-.577l-5.9-3.27a.684.684,0,0,0-.351-.093.75.75,0,0,0-.361.093l-5.9,3.259a.686.686,0,0,0-.34.588v6.509a.707.707,0,0,0,.361.608l13,7.086a.8.8,0,0,1,.011,1.392l-5.982,3.311a1.616,1.616,0,0,1-.779.2A1.664,1.664,0,0,1,377.492,565.352Zm-31.684,0-12.954-7.179a1.488,1.488,0,0,1-.784-1.3V542.527a1.49,1.49,0,0,1,.784-1.3l12.954-7.168a1.664,1.664,0,0,1,1.568,0l5.818,3.228V516.02a.633.633,0,0,1,.32-.547.619.619,0,0,1,.639-.01l6.3,3.517a1.3,1.3,0,0,1,.661,1.124v36.769a1.489,1.489,0,0,1-.784,1.3l-12.955,7.179a1.685,1.685,0,0,1-1.568,0Zm.423-22.763h.011l-5.89,3.259a.678.678,0,0,0-.361.6v6.519a.674.674,0,0,0,.361.588l5.89,3.26a.73.73,0,0,0,.711,0l5.89-3.26a.684.684,0,0,0,.351-.588v-6.519a.678.678,0,0,0-.361-.6l-5.88-3.259a.868.868,0,0,0-.361-.083A.74.74,0,0,0,346.231,542.589ZM507.436,565.1V550.563h5.849a4.651,4.651,0,0,1,4.871,4.917,4.7,4.7,0,0,1-4.98,4.858h-3.154V565.1Zm2.587-6.919h2.57c1.849,0,2.93-.967,2.93-2.707,0-1.774-1.058-2.735-2.924-2.735h-2.576Zm-32.2,6.919V550.563h5.849a4.888,4.888,0,1,1-.109,9.775h-3.147V565.1Zm2.593-6.919h2.564c1.849,0,2.93-.967,2.93-2.707,0-1.774-1.053-2.735-2.925-2.735h-2.569Zm477.607,6.836V534h31.017v31.017Zm6.89-6.89h17.238V540.89H964.908Zm-65.479,6.89V534h31.017v31.017Zm6.889-6.89h17.238V540.89H906.319Zm-405.126,6.79v-6.2h-7.125v6.2h-2.622V550.563h2.622V556.5h7.125v-5.941H503.8v14.354Zm-207.048-2.093-6.332-3.682a1.273,1.273,0,0,1-.629-1.1V546.446a.686.686,0,0,0-.34-.588l-5.9-3.259a.751.751,0,0,0-.723,0l-5.9,3.259a.673.673,0,0,0-.34.588V558.04a1.271,1.271,0,0,1-.629,1.1l-4.236,2.463c-1.028-1.085-2.035-2.154-3.056-3.243V542.558a1.526,1.526,0,0,1,.784-1.33l12.955-7.168a1.664,1.664,0,0,1,1.568,0l12.954,7.168a1.53,1.53,0,0,1,.784,1.341v19.7a.649.649,0,0,1-.32.557.63.63,0,0,1-.316.085A.673.673,0,0,1,294.145,562.825Zm278.972-7.087c-.1-2.7,4.5-5.8,6.5-7.1,2.6-1.8,5-2.4,8.1-1.2,2.5.9,4.3,3.1,7.1,2.4,3.5-.9,5.7-3.5,9.8-3.7,3.5-.1,6.9.9,10.3.9,4.1,0,7.8-2,11.9-2.3,2.8-.3,18.2,1.2,16.8,6.3-1.1,3.7-7.2.8-9.7.3a21.517,21.517,0,0,0-10.4.1c-3.7.9-7,1.8-10.9,1.4-3.4-.3-7-1.4-10.4-.5s-5.7,3.2-9.3,3c-2.8-.2-5.6-3.1-8.2-2.9-1.4.147-6.943,6.279-9.832,6.28C573.842,558.719,573.144,557.916,573.117,555.738Zm181.479,2.1V510.167h47.668v47.668Zm4.766-6.554h17.876V548.3H759.362Zm15.194-17.624a7.941,7.941,0,0,0,6.257,3.025c6.555,0,7.15-5.064,7.15-7.745V515.828h-4.469v13.109c0,.894,0,3.575-2.681,3.575a4.988,4.988,0,0,1-3.51-2Zm-13.406,2.728h10.129v-3.874H768.3V519.7h2.979v-3.873H761.15V519.7h2.979v12.811H761.15Zm207.2,18.3V544.335H978.7v10.348Zm-58.588,0V544.335h10.348v10.348Zm-531.622-2.369-2.156-1.2a.232.232,0,0,1-.124-.217V548.51a.231.231,0,0,1,.124-.217l2.156-1.2a.309.309,0,0,1,.268,0l2.156,1.2a.24.24,0,0,1,.134.217V550.9a.241.241,0,0,1-.134.217l-2.156,1.2a.309.309,0,0,1-.268,0Zm219.475-15.476a21.355,21.355,0,0,1-8.4-8.2,16.578,16.578,0,0,1-2.1-8.1,17.979,17.979,0,0,1,2.8-9q-1.651-.3-1.8-1.2c-.2-1.6,3.5-3.9,4.4-4.4l.3-.2c3.2-1.7,6.5-3.5,10-4a34.046,34.046,0,0,1,4.5-.3,28.692,28.692,0,0,1,11.6,2.4,18.105,18.105,0,0,1,8.6,7.8,14.845,14.845,0,0,1,1.9,6.5,19.177,19.177,0,0,1-.7,6.7,23.152,23.152,0,0,1-2.8,6.2,21.514,21.514,0,0,1-4.5,5,20.563,20.563,0,0,1-12.1,3.9A23.785,23.785,0,0,1,597.617,536.838Zm-3.2-25.4a13.161,13.161,0,0,0-3.2,10.6c1,7.8,8.9,14.4,17.2,14.4h1.1a17.212,17.212,0,0,0,15.5-14.6,11.588,11.588,0,0,0-2.7-9.6c-3.1-3.6-8.9-6-15.1-6.1,0-.1-.2-.1-.3-.1A16.942,16.942,0,0,0,594.418,511.439Zm9.6,14.6c.6-2.1,8.8-.6,8.7,1-.162,1.38-1.756,1.952-3.541,1.952C606.563,528.991,603.542,527.763,604.017,526.038Zm66.7-2c-2.6,0-5.3-.1-7.9-.2-10.6-.3-21.5-.9-32,.4-1.8.2-1.2-5.7,1.9-5.9,12.4-.3,24.9-.1,37.3.8,1.7.1,13.5,1.7,7.5,4.9a4.565,4.565,0,0,1-2.052.356C673.828,524.394,671.851,524.039,670.717,524.039Zm-59.8-5.6c0-3.9,6-3.8,6,0a3,3,0,0,1-6,0Zm-10.2-.6c0-3.5,5.5-3.5,5.5,0a2.753,2.753,0,0,1-5.5,0Zm473.847-20.7-23.389-12.715a1.315,1.315,0,0,1-.679-1l-4.383-35.942a1.311,1.311,0,0,1,.882-1.409l27.735-9.658a1.55,1.55,0,0,1,.428-.073,1.379,1.379,0,0,1,.433.073l27.913,9.481a1.326,1.326,0,0,1,.892,1.414l-4.382,35.937a1.315,1.315,0,0,1-.684,1l-23.5,12.882a1.322,1.322,0,0,1-.642.162A1.288,1.288,0,0,1,1074.565,497.136Zm8.348-25.007,3.689,7.942h5.88l-17.228-37.1-17.222,37.1h5.88l3.684-7.942ZM419.111,445a35.318,35.318,0,1,1,35.319,35.319A35.325,35.325,0,0,1,419.111,445Zm15.838,21.632c.09,2.58,3.456,4.849,7.14,4.719,1.966-.062,6.367-.849,10.7-5.933,5.042-5.822,6.457-12.5,7.511-17.383l1.249-6.712c.661.077,1.359.124,2.131.145,6.277.131,10.043-3.221,10.043-5.553,0-1.911-1.407-3.38-2.766-3.353a2.653,2.653,0,0,0-2.539,2.5c-.034,1.332,2,2.3.214,3.435-1.269.815-3.545,1.387-6.753.918l.469-2.511c1.186-6.022,2.47-13.072,8.029-13.252.407-.021,1.89.014,1.925.98a7.035,7.035,0,0,0-.794,2.428,2.565,2.565,0,0,0,2.953,2.483c2.3-.069,2.841-2.255,2.807-3.394-.1-2.663-2.829-4.36-6.588-4.235a13.335,13.335,0,0,0-9.5,5.008,26.1,26.1,0,0,0-5.429,9.526c-2.325-1.883-4.055-4.228-7.788-5.291a9.114,9.114,0,0,0-8.409,1.483,7.671,7.671,0,0,0-2.656,3.821,7.171,7.171,0,0,0-.3,2.173c0,3.193,4.463,8.974,4.463,8.974a3.393,3.393,0,0,1,.717,3.47,4.214,4.214,0,0,1-5.346,2.427c-1.076-.331-2.622-1.117-2.276-2.228a10.227,10.227,0,0,1,.655-1.187c.158-.337.179-.392.235-.537.579-1.628-.09-3.574-1.628-4.043a2.917,2.917,0,0,0-3.712,1.993c-.648,2.076.531,5.877,5.9,7.512,6.3,1.911,11.63-1.476,12.389-5.884a7.046,7.046,0,0,0,.117-1.228c0-3.353-5.47-8.885-5.47-11.692a3.341,3.341,0,0,1,.717-2.146c.994-1.242,2.048-1.442,4.38-.821,3.407.911,4.863,3.159,7.394,5.035-1.041,3.379-2.014,7.539-2.628,10.581l-.38,2.27c-1.814,9.354-3.138,14.182-6.725,17.128a7.926,7.926,0,0,1-4.318,1.3.954.954,0,0,1-1.1-.772c-.013-.565.469-.821.793-1.076a1.953,1.953,0,0,0,1.152-2.056,3.3,3.3,0,0,0-3.462-3.187A4,4,0,0,0,434.949,466.633Zm468.284,12.738a27.5,27.5,0,0,1-8.547-5.015c-1.147-.93-2.306-2-3.472-3.13-1.154,1.127-2.313,2.194-3.46,3.117a27.252,27.252,0,0,1-8.547,5.008,8.441,8.441,0,0,1-11.9-6.861,27.557,27.557,0,0,1,.072-9.911,51.489,51.489,0,0,1,1.166-5.338c-1.377-.4-2.708-.843-3.934-1.318a26.794,26.794,0,0,1-8.422-4.91,8.514,8.514,0,0,1,0-13.674,26.8,26.8,0,0,1,8.422-4.9c1.147-.447,2.392-.856,3.664-1.238-.336-1.4-.639-2.755-.843-4.059a27.325,27.325,0,0,1-.073-9.9,8.428,8.428,0,0,1,11.856-6.847,27.467,27.467,0,0,1,8.534,5.015c1.133.916,2.273,1.964,3.414,3.071,1.173-1.133,2.333-2.208,3.493-3.15a27.569,27.569,0,0,1,8.554-5.015,11.856,11.856,0,0,1,4.039-.626,7.752,7.752,0,0,1,3.671,1.009,9.384,9.384,0,0,1,4.184,6.484,27.266,27.266,0,0,1-.072,9.917c-.2,1.305-.508,2.683-.85,4.086,1.3.383,2.551.8,3.723,1.252a26.865,26.865,0,0,1,8.422,4.9,8.514,8.514,0,0,1,0,13.674,26.856,26.856,0,0,1-8.422,4.91c-1.272.494-2.642.935-4.059,1.357a53.518,53.518,0,0,1,1.166,5.35,27.169,27.169,0,0,1,.066,9.9,9.351,9.351,0,0,1-4.158,6.465A7.872,7.872,0,0,1,906.941,480,12.127,12.127,0,0,1,903.233,479.371Zm-2.452-19.612a82.392,82.392,0,0,1-7.229,9.061c1.094,1.074,2.188,2.083,3.242,2.952a24.861,24.861,0,0,0,7.46,4.415c2.162.692,3.783.607,4.989-.092s2.089-2.05,2.563-4.271a24.307,24.307,0,0,0-.105-8.666,48.192,48.192,0,0,0-1.094-5.021A78.071,78.071,0,0,1,900.781,459.759Zm-30.03,3.361a24.742,24.742,0,0,0-.1,8.66c.475,2.207,1.358,3.545,2.551,4.237s2.8.784,4.949.086a24.545,24.545,0,0,0,7.447-4.409c1.061-.857,2.135-1.858,3.223-2.926a81.428,81.428,0,0,1-7.177-9.022,74.754,74.754,0,0,1-9.793-1.627A50.35,50.35,0,0,0,870.751,463.119Zm20.416,3.243a77.111,77.111,0,0,0,5.161-6.254c-1.668.086-3.348.145-5.074.145-1.786,0-3.526-.066-5.24-.158A78.3,78.3,0,0,0,891.167,466.362Zm-6.642-34.617c-1.477,2.129-2.92,4.376-4.3,6.755-1.239,2.135-2.353,4.277-3.362,6.385q1.5,3.154,3.348,6.352c1.061,1.846,2.174,3.605,3.308,5.3,2.5.217,5.074.336,7.73.336,2.6,0,5.12-.112,7.558-.323,1.153-1.72,2.28-3.5,3.368-5.378q1.839-3.2,3.361-6.366c-1-2.069-2.1-4.178-3.315-6.274-1.377-2.4-2.834-4.658-4.323-6.794-2.155-.158-4.376-.25-6.649-.25C888.953,431.488,886.712,431.581,884.525,431.745Zm20.613,21.134c-.625,1.087-1.265,2.141-1.911,3.176,2.254-.31,4.4-.706,6.412-1.173-.645-1.957-1.4-3.987-2.28-6.07C906.653,450.17,905.922,451.521,905.137,452.879Zm-32.316,2c2,.462,4.138.857,6.385,1.174q-.958-1.532-1.892-3.137c-.79-1.371-1.522-2.728-2.22-4.1C874.218,450.888,873.453,452.919,872.821,454.875Zm36.448-9.99a81.624,81.624,0,0,1,3.612,9.153c1.337-.389,2.623-.81,3.789-1.258a24.062,24.062,0,0,0,7.361-4.244c1.641-1.508,2.353-2.958,2.353-4.356s-.712-2.847-2.353-4.355a24.062,24.062,0,0,0-7.361-4.244c-1.048-.4-2.2-.784-3.388-1.133A80.135,80.135,0,0,1,909.269,444.885Zm-43.434-9.305a24.062,24.062,0,0,0-7.361,4.244c-1.641,1.508-2.353,2.958-2.353,4.355s.712,2.848,2.353,4.356a24.062,24.062,0,0,0,7.361,4.244c1.134.435,2.372.843,3.664,1.219a81.115,81.115,0,0,1,3.631-9.2,80.886,80.886,0,0,1-3.967-10.34C868,434.809,866.876,435.185,865.835,435.58Zm39.282,1.279c.778,1.337,1.5,2.682,2.2,4.019,1.06-2.531,1.944-4.982,2.662-7.322a71.54,71.54,0,0,0-7.763-1.4C903.207,433.676,904.189,435.225,905.117,436.859Zm-32.712-3.275a76.581,76.581,0,0,0,2.642,7.275c.706-1.345,1.437-2.708,2.221-4.072.922-1.595,1.878-3.11,2.847-4.6A70.594,70.594,0,0,0,872.405,433.584Zm2.926-20.482a4.4,4.4,0,0,0-2.128.573c-1.206.692-2.1,2.05-2.577,4.264a24.754,24.754,0,0,0,.1,8.665c.191,1.18.474,2.432.785,3.717a77.17,77.17,0,0,1,11.123-1.812,82.088,82.088,0,0,1,6.188-7.632c-1.075-1.04-2.142-2.022-3.19-2.873a24.383,24.383,0,0,0-7.454-4.422,8.858,8.858,0,0,0-2.7-.483C875.426,413.1,875.378,413.1,875.331,413.1Zm28.923.468a24.637,24.637,0,0,0-7.447,4.422c-1.061.864-2.155,1.872-3.255,2.939a81.3,81.3,0,0,1,6.148,7.559,77.765,77.765,0,0,1,11.171,1.8c.316-1.292.593-2.544.777-3.737a24.236,24.236,0,0,0,.106-8.653c-.468-2.208-1.351-3.552-2.551-4.244a4.361,4.361,0,0,0-2.109-.56c-.048,0-.1,0-.144,0A8.947,8.947,0,0,0,904.254,413.57ZM887.134,428.2c1.358-.052,2.729-.092,4.119-.092,1.371,0,2.714.04,4.039.086-1.351-1.74-2.708-3.368-4.079-4.856Q889.167,425.58,887.134,428.2Zm182.923,38.618,5.2-11.264,5.2,11.264Zm-494.843,0a3.937,3.937,0,0,1-3.932-3.938V408.785a3.932,3.932,0,0,1,3.932-3.933h54.1a3.936,3.936,0,0,1,3.933,3.933v54.1a3.941,3.941,0,0,1-3.938,3.933Zm32.949-11.8a10.287,10.287,0,0,0,9.852,5.9c5.344,0,9.329-2.783,9.329-7.848,0-4.7-2.7-6.79-7.488-8.835l-1.406-.61c-2.417-1.046-3.456-1.725-3.456-3.415a2.444,2.444,0,0,1,2.689-2.411c1.621,0,2.655.68,3.625,2.411l4.379-2.817c-1.853-3.259-4.426-4.508-8-4.508-5.025,0-8.249,3.218-8.249,7.436,0,4.589,2.707,6.755,6.767,8.481l1.406.61c2.568,1.121,3.834,1.806,3.834,3.73,0,1.615-1.226,2.782-3.555,2.782-2.776,0-4.095-1.887-5.3-3.857Zm-20.651,0a10.351,10.351,0,0,0,9.2,5.9c5.048,0,8.5-2.689,8.5-8.586V432.881h-5.9v18.554c0,2.846-1.075,3.577-2.951,3.577a4.839,4.839,0,0,1-4.212-2.805Zm295.371-10.154a8.37,8.37,0,1,1,8.37,8.369A8.4,8.4,0,0,1,882.883,444.859Zm-203.838-3.5a31.243,31.243,0,0,1-1.982-2.606c-.031-.016-.078-.04-.117-.063a1.97,1.97,0,0,1-.75-1.171.886.886,0,0,1-.062-.124c-.008-.016.007-.047,0-.063a30.836,30.836,0,0,1-4.082-11.028h-.374c.1-.023.257-.094.374-.125a28.448,28.448,0,0,1-.374-4.332,23.559,23.559,0,0,1,.312-3.84,1.993,1.993,0,0,1,1.92-1.616h7.681V406.48H691.5v-9.9h19.816v-9.912h13.877V406.48h9.912v9.912h.992a19.232,19.232,0,0,0,7.43-1.3,8.3,8.3,0,0,0,1.553-.874,14.841,14.841,0,0,1-1.616-5.323,16.044,16.044,0,0,1,1.741-9.108,11.951,11.951,0,0,1,2.412-3.161,2.058,2.058,0,0,1,.866-.429,1.986,1.986,0,0,1,1.366.249,19.792,19.792,0,0,1,7.68,10.4,17.576,17.576,0,0,1,12.511,2.419,1.955,1.955,0,0,1,.68,2.038,12.781,12.781,0,0,1-3.278,5.143c-2.3,2.224-6.416,4.066-12.145,4.214-.625,1.46-1.319,2.849-2.045,4.215,3.777.671,8.655.3,11.216-2.668-.765,2.817,3.856,3.551,6.009,4.09H752.45c-9.679,17.14-26.81,25.772-47.079,25.772C692.961,452.076,684.352,447.471,679.045,441.36Zm26.326,6.751c18.419,0,33.521-7.11,42.622-21.806H676.134a27.849,27.849,0,0,0,3.473,8.983,42.234,42.234,0,0,0,17.591-1.428,2.367,2.367,0,0,1,.492-.125,2.04,2.04,0,0,1,.312-.054,1.994,1.994,0,1,1,.5,3.956,46.233,46.233,0,0,1-15.61,1.921C687.505,444.427,694.537,448.111,705.371,448.111Zm43.364-24.967a4.484,4.484,0,0,0,.742.562,54.191,54.191,0,0,0,2.669-5.581,1.985,1.985,0,0,1,1.921-1.233c5.729.219,8.788-1.545,10.591-3.286a4.376,4.376,0,0,0,1.358-2.107c-1.5-.867-4.231-2.006-9.288-.616a1.99,1.99,0,0,1-2.482-1.553,12.74,12.74,0,0,0-5.072-8.359,3.142,3.142,0,0,0-.5.68,12.006,12.006,0,0,0-1.241,6.876,10.053,10.053,0,0,0,1.858,5.269,1.979,1.979,0,0,1-.492,2.911,21.794,21.794,0,0,1-3.777,2.045,23.13,23.13,0,0,1-8.921,1.608H675.767a8.5,8.5,0,0,0-.125,1.49,22.412,22.412,0,0,0,.25,3.216c1.265-.6,2.224-1.483,1.858-2.849,3.911,4.534,13.291,3.161,15.672.929,2.654,3.848,18.123,2.38,19.2-.617,3.333,3.9,13.651,3.9,16.976,0C730.674,425.525,746.08,426.992,748.734,423.144Zm-23.539-6.752h5.947v-5.947h-5.947Zm-9.912,0h5.947v-5.947h-5.947Zm-9.913,0h5.947v-5.947h-5.947Zm-9.9,0h5.947v-5.947h-5.947Zm-9.912,0H691.5v-5.947h-5.947Zm29.729-9.912h5.947v-5.947h-5.947Zm-9.913,0h5.947v-5.947h-5.947Zm-9.9,0h5.947v-5.947h-5.947Zm19.817-9.9h5.947v-5.947h-5.947ZM214.234,446.344l-4.3-48.72h48.719q-2.151,24.357-4.3,48.72l-20.064,5.732Zm2.68-2.218,17.377,4.971,17.383-4.971,3.848-43.636H213.062Zm6.06-7.1-.428-7.882h5.732l.141,3.583,5.872,2,5.88-2,.423-6.449h-12.6l-.288-5.732h13.186l.423-5.732H221.541l-.429-5.727h26.224l-.716,11.459-1.01,16.481-11.318,3.729Zm478.439-4.777a1.984,1.984,0,0,1,1.975-1.983,2.146,2.146,0,0,1,.75.125.8.8,0,0,0-.437.679.853.853,0,0,0,.8.867.906.906,0,0,0,.749-.429,1.923,1.923,0,0,1,.117.742,1.979,1.979,0,1,1-3.957,0Zm-370.054-3.477c-4.171-.685-7.728-3.772-7.728-7.891v-14.5a7.748,7.748,0,0,1,7.728-7.727h13.534a9.9,9.9,0,0,0,9.578-9.671v-8.454h6.124c4.457,0,7.115,3.24,8.219,7.727a27.913,27.913,0,0,1,0,15.385,9.679,9.679,0,0,1-9.671,7.728H336.358v2.74h15.456v6.767c0,4.386-1.155,6.767-7.646,7.891a44.578,44.578,0,0,1-7.411.644h-.32A22.3,22.3,0,0,1,331.359,428.775Zm11.193-8.29a2.9,2.9,0,1,0,2.9-2.9A2.912,2.912,0,0,0,342.553,420.485Zm-27.7-6.45c-4.457,0-7.115-3.241-8.219-7.728a27.989,27.989,0,0,1,0-15.385,9.678,9.678,0,0,1,9.67-7.727h22.785v-2.74H323.631v-6.767c0-4.375,1.156-6.757,7.646-7.892a45.783,45.783,0,0,1,7.411-.644,22.683,22.683,0,0,1,5.4.644c4.171.7,7.727,3.773,7.727,7.892v14.5a7.75,7.75,0,0,1-7.727,7.737H330.552a9.9,9.9,0,0,0-9.579,9.661v8.454ZM327.1,374.1a2.9,2.9,0,1,0,2.893-2.9A2.909,2.909,0,0,0,327.1,374.1Zm613.284,15.951c-.343,0-1.852-.14-2.231-.166-4.927-.949-4.175-8.247-4.37-12.235-.2-4.3-1.4-12.9,1.3-16.5a6.96,6.96,0,0,1,.9-.6,3.037,3.037,0,0,1,4,1.5c.8,1.8-.2,5.5-.3,7.5-.1,3-.1,5.9-.1,8.8,0,.9-.5,6.8.1,7.4.6.7,5.1.3,6.2.3,2.7.1,5.4,0,8.1,0,5.5-.1,10.9-.1,16.4-.4,1.534-.07,8.122-.966,11.734-.418a39.474,39.474,0,0,1-1.134-4.382c-1.5-6.4-1.5-13-1.7-19.5a3.323,3.323,0,0,1,.033-.48c-.517.029-.947.051-1.233.08-8.9.8-17.9,1-26.8,1.5-2.4.2-9.5,2.1-10.7-.8-1.5-3.6,4.3-3.3,6.1-3.4,8.6-.6,17.1-.9,25.7-1.2,2.5-.1,11.2-1.5,13,.2,1.158,1.128,1.071,1.892.344,2.417,1.086,1.87.575,4.755.656,6.783.1,3.3.3,6.7.7,10,.3,2.9,1.8,6.5,1.6,9.3a2.93,2.93,0,0,1-4.3,2.7,2.978,2.978,0,0,1-.793-.592c-3.078,1.568-13.045,1.506-15.107,1.592-5.7.3-11.5.5-17.2.6-2.5.1-5.1.1-7.6.1C942.581,390.147,941.481,390.147,940.381,390.047Zm-1.871-.109.071.009Zm-.36-.057c.117.022.237.041.36.057C938.038,389.883,937.984,389.871,938.15,389.882Zm64.131-2.235c-2-.1-4.2-.8-3.7-3.4.5-2.3,2.8-2.4,4.7-2.6a168.762,168.762,0,0,1,17.4-.8c12.2,0,24.5,0,36.7-.1a2.39,2.39,0,0,1,1.4.5c-.6-.8-.3-1.9-.5-3-.3-3-.5-6-1.1-9-.5-2.4-.8-6.5-3-8.1-1.9-1.3-5.6-1.2-8.6-1.2h-2.2a205.848,205.848,0,0,0-23.6,1.1c-3.6.3-7.2.6-10.7,1.2-2,.4-7.7,3.2-9.3,1.5-3.8-4.3,12.8-6,15.1-6.3,8-.8,16-1.4,24.1-1.5,5.4,0,14.8-.5,18.8,4,2.4,2.7,3.2,7.1,4.2,10.4.7,2.6,2.7,7.2,1.3,9.9-.6,1.2-1.6,2.2-3.2,1.8a3.54,3.54,0,0,1-.9-.4,2.345,2.345,0,0,1,.5,2.4c-.9,2.1-4.3,1.7-6.1,1.8-6.1.5-12.3.9-18.4.9h-8.8c-3,0-6-.1-9,0-4.5,0-9.2.9-13.6.9a5.1,5.1,0,0,1-.825.075A2.809,2.809,0,0,1,1002.281,387.647Zm-180.419-.013a1.991,1.991,0,0,1-1.953-1.578l-.465-2.328a19.686,19.686,0,0,1-8.094-4.617l-2.168.742a2,2,0,0,1-2.359-.9l-3.129-5.457a1.989,1.989,0,0,1,.4-2.477l1.739-1.551a19.414,19.414,0,0,1-.652-4.652,19.173,19.173,0,0,1,.652-4.648l-1.739-1.551a1.992,1.992,0,0,1-.4-2.481l3.161-5.457a1.994,1.994,0,0,1,2.327-.9l2.168.742a19.708,19.708,0,0,1,8.094-4.617l.465-2.324A1.991,1.991,0,0,1,821.863,342h6.324a2,2,0,0,1,1.953,1.582l.464,2.324a19.718,19.718,0,0,1,8.09,4.617l2.172-.742a2,2,0,0,1,2.355.9l3.133,5.457a1.992,1.992,0,0,1-.406,2.481l-1.734,1.551a16.9,16.9,0,0,1,0,9.3l1.734,1.551a1.984,1.984,0,0,1,.406,2.477l-3.164,5.457a1.982,1.982,0,0,1-2.325.9l-2.172-.742a19.639,19.639,0,0,1-8.09,4.617l-.464,2.328a1.991,1.991,0,0,1-1.953,1.578Zm-9.582-10.32a17.768,17.768,0,0,0,8.309,4.774l.589.156.684,3.411h6.324l.68-3.411.59-.156a17.762,17.762,0,0,0,8.309-4.774l.434-.464.59.214,2.7.9,3.164-5.458-2.141-1.891-.464-.4.156-.589a17.216,17.216,0,0,0,0-9.609l-.156-.59.464-.4,2.141-1.891-3.164-5.458-2.664.9-.621.219-.434-.465a17.694,17.694,0,0,0-8.309-4.774l-.59-.156-.68-3.41h-6.324l-.684,3.41-.589.156a17.775,17.775,0,0,0-8.309,4.774l-.434.465-.589-.219-2.7-.9L805.4,357.13l2.14,1.891.465.4-.157.59a17.326,17.326,0,0,0,0,9.609l.157.589-.465.4L805.4,372.5l3.164,5.458,2.664-.9.621-.214Zm263.5,9.434c-2.1-.2-4.3-.9-3.8-3.6-1.5-2.8-2.1-8.2-2.3-9.2a89.3,89.3,0,0,1-.5-13.7,2.89,2.89,0,0,1,3.1-2.9,2.716,2.716,0,0,1,1.7.6c2.5-1,6.7-1.2,9-1.4,3.7-.4,7.5-.5,11.2-.7,8.7-.5,17.5-1.5,26.2-1.7,2.6-.1,6.1-.3,8.2,1.6,2.4,2.2,2.9,7.7,3.6,10.6a64.153,64.153,0,0,1,2,9.7,18.311,18.311,0,0,1,.2,3.3,2.051,2.051,0,0,1,1.6,2.4c-.2,2.1-3.2,2.4-4.9,2.8-5.8,1.1-12,.9-17.8,1-9.5.3-19.5,1.5-29.2,1.5q-1.012.036-2.041.037A58.9,58.9,0,0,1,1075.781,386.747Zm45.1-28.4c-3.5.2-7.1.6-10.6.9-7.8.6-15.5,1-23.3,1.6-4,.3-7.9,1.4-11.8,1.9a26.771,26.771,0,0,0-.2,3.8c.1,3,.4,6,.6,9,.1,1.2.6,3.3.7,5.2l.7-.1h.8c6.2-.1,12.3-.3,18.5-.5,6.3-.2,12.6-.5,18.9-.6,2.2,0,4.4,0,6.6.1,2.9.1,5.7.2,8.5.1-1.1-2.8-.9-7.3-1.5-10.2s-.8-6.4-2-9.1c-.808-1.925-1.577-2.385-2.858-2.385C1123.141,358.062,1122.169,358.233,1120.881,358.348Zm-663.246,11.8v-9h-6.344v9a4.072,4.072,0,1,1-8.142,0v-9H439.51a3.181,3.181,0,0,1-3.177-3.177V328.425h36.257v29.556a3.172,3.172,0,0,1-3.177,3.167h-3.637v9a4.072,4.072,0,1,1-8.142,0Zm365.9,1.493a1,1,0,0,1-.492-.871v-4.742a1.008,1.008,0,0,1,0-.4v-6.762a.994.994,0,0,1,.809-.992H828a2.993,2.993,0,0,1,2.977,2.976v2.976A2.991,2.991,0,0,1,828,366.8h-2.976v3.969a.993.993,0,0,1-1.492.871Zm1.492-6.824H828a.975.975,0,0,0,.993-.993v-2.976a.975.975,0,0,0-.993-.993h-2.976Zm-5.461,6.824a1,1,0,0,1-.491-.871v-.4l-.5-1.582h-3.964l-.5,1.582v.4a.992.992,0,1,1-1.984,0v-.589a.894.894,0,0,1,.031-.309l3.469-11.285a1,1,0,0,1,1.925,0l3.469,11.285a.916.916,0,0,1,.031.309v.589a.992.992,0,0,1-.991,1.006A1,1,0,0,1,819.562,371.642Zm-4.367-4.84h2.793l-1.4-4.527Zm17.718,4.016a1,1,0,0,1,.946-1.039h.094v-9.922a.993.993,0,1,1-.094-1.984h.867a.908.908,0,0,1,.125-.031,1.1,1.1,0,0,1,.282.031h.8a.991.991,0,0,1,.871,1.491.992.992,0,0,1-.871.492v9.922a.992.992,0,1,1,0,1.984H833.9A1,1,0,0,1,832.913,370.817Zm-683.182-15.13c18.3-1.48,36.6-1.878,54.905-2.276,8.1-.1,16.2-.4,24.3-1,8.729-.65,17.545-.265,26.286-1.008-.463-2.512-.009-5.82-.086-7.892-.284-8.436-.748-16.961-1.051-25.492a14.371,14.371,0,0,1-3.449-.208c-4.2-.3-8.3-.5-12.4-.7-15.7-.8-31.3-1.1-47-1.5-15.685-.409-31.906-1.218-47.733-.464-.078-.855-.151-1.7-.222-2.558,7.153-.189,14.331-.079,21.456-.079,20.2,0,40.6,0,60.8,1.1,8.4.5,16.7,1,25.1,1.4.193.019.51.016.894.013a12.451,12.451,0,0,1,2.785.194c.964-1.93,4.137-1.793,5.222.293,1.3,2.6.5,9,.6,11.9.4,7.5,1.9,15.9.5,23.4-.37,2.212-2.013,5.785-4.148,3.353a42.487,42.487,0,0,1-5.452.347c-5,.4-10.1.4-15.2.7-10.2.6-20.3,1.4-30.5,1.7-18.239.487-36.575.975-54.818,2.3C150.25,358.035,149.988,356.867,149.731,355.687Zm875.849-.039c-.9-.9-1.1-5.1-1.3-6.3-1.2-6.2-1.1-12.4-1.3-18.7a1.967,1.967,0,0,1,.691-1.774q-.7-.2-1.391-.426-.568-.189-1.129-.408c-.442,1.051-1.88,2.115-2.571,2.807a31.773,31.773,0,0,1-7.9,5.2c-6.1,2.9-13.2,3.2-19.8,3.6-6.4.4-13.4.3-19.2,3.1a20.224,20.224,0,0,0-7.5,6.4c-1,1.4-2.6,6.2-4.2,6.8-4.5,1.7-1.5-5.5-.9-6.8a23.061,23.061,0,0,1,6.1-7.4c5.4-4.4,12.2-5.3,18.9-5.8,12.337-.875,24.582-.145,33.614-9.547a29.194,29.194,0,0,1-3.014-1.953,22.1,22.1,0,0,1-5.6-6.2,16.408,16.408,0,0,1-2.2-8.1,17.49,17.49,0,0,1,1.8-7.8,21.966,21.966,0,0,1,4.8-6.1,36.083,36.083,0,0,1,14.2-7.2,22.336,22.336,0,0,1,5.1-.7,18.749,18.749,0,0,1,12.9,5.1,20.469,20.469,0,0,1,6.4,12.8,20.859,20.859,0,0,1-3.849,14.816,6.4,6.4,0,0,1,2.049,2.684,4.713,4.713,0,0,0,.7,1.2,11.576,11.576,0,0,0,7.2,5.2,109.815,109.815,0,0,0,13.9,2.7c1.2.2,2.4.4,3.7.6,1,.2,2,.3,3,.5,5.5.8,11.2,1.7,16.2,3.9a27.639,27.639,0,0,1,6.2,5.1c1.7,1.8,4.6,5.1,4.8,7.4a1.677,1.677,0,0,1-1,1.8.746.746,0,0,1-.7.3c-1.5,0-3-2.5-4-4.2a5.992,5.992,0,0,0-.9-1.3,14.323,14.323,0,0,0-6.8-5.1c-5.2-1.8-11-2.4-16.5-3.1-1.9-.2-3.9-.4-5.7-.7-1-.1-2-.3-3-.4-5-.6-10.7-1.4-15-3.8-1.716-.995-6.692-5.494-7.717-9.008a22.232,22.232,0,0,1-13.283,4.908c-.2,0-.5.1-.8.1a24.741,24.741,0,0,1-3.688-.282,2.466,2.466,0,0,1,.388.581c.6,1.2.3,3.7.3,4.9.1,5.7.7,11.5.4,17.1-.081,1.205-.1,4.086-1.292,4.086A1.792,1.792,0,0,1,1025.581,355.648Zm-11.8-40.6c3.1,5.3,10.3,9,17.6,9a19.516,19.516,0,0,0,7.1-1.4c7.3-3.4,9.3-11.3,8-17.3-1.1-5.2-5.1-10.7-12.9-10.8a3.136,3.136,0,0,1,.7,2.1,1.827,1.827,0,0,1-.7,1,1.606,1.606,0,0,1-.9.3c-.7,0-1.2-.7-1.6-1.3a2.952,2.952,0,0,0-1.4-1.3,4.385,4.385,0,0,1-.5-.1c-1.4,0-3.2,1.1-4.5,2.1a18.976,18.976,0,0,0-2,2c-1.9,2.1-4.4,4.9-6.4,4.9a2.428,2.428,0,0,1-2.1-1.4C1011.781,307.048,1011.581,311.247,1013.781,315.048ZM474.89,348.623V332.44a4.067,4.067,0,1,1,8.132,0v16.183a4.067,4.067,0,1,1-8.132,0Zm-49.15-.01V332.44a4.066,4.066,0,1,1,8.132,0v16.173a4.067,4.067,0,1,1-8.132,0ZM147.81,346.207c-.187-1-.372-2.014-.551-3.015.254.013.512.019.777.019a10.223,10.223,0,0,0,5.4-1.5,8.337,8.337,0,0,0,3.3-4.7,10.423,10.423,0,0,0-1.4-8.9,16.338,16.338,0,0,0-7.2-5.8v.5l.1.5c-.2.9-1.2,1-2.1,1h-.7a1.487,1.487,0,0,0-.7-.1c-.1,0-.19,0-.285,0q-.183-1.541-.351-3.088a6.693,6.693,0,0,1,.836-.115,5.726,5.726,0,0,0-.842.063q-.181-1.66-.345-3.329a8.369,8.369,0,0,1,1.287-.133h.4a13.532,13.532,0,0,1,8.6,3.3,19.05,19.05,0,0,1,5.6,7.8,14.072,14.072,0,0,1,.9,7.6,10.644,10.644,0,0,1-3.8,6.7,12.913,12.913,0,0,1-8.6,3.2C148.028,346.211,147.919,346.21,147.81,346.207Zm377.1-4.156a8.232,8.232,0,0,1-2.9-4.2,10.7,10.7,0,0,1-.2-4h-.4a1.922,1.922,0,0,1-1.6-.9c-.3-3.7,3.1-6.9,5.1-8.5a22.388,22.388,0,0,1,9.5-4.4,4.878,4.878,0,0,1,1.2-.1,10.471,10.471,0,0,1,7.6,3.5,12.841,12.841,0,0,1,3.5,9.1,11.8,11.8,0,0,1-3.7,8.2,14.344,14.344,0,0,1-8.2,3.7,11.4,11.4,0,0,1-1.9.1c-.146.005-.292.007-.437.007A12.7,12.7,0,0,1,524.914,342.051Zm8.8-17.1a2.939,2.939,0,0,1-1.6,1.5,5.12,5.12,0,0,1-1.1.2,3.179,3.179,0,0,0-1.4.2,7.3,7.3,0,0,0-2.6,2.9l-.1.1c-1.6,2.7-2,5.5-1,7.6.9,1.9,2.8,3.1,5.5,3.5a10.878,10.878,0,0,0,1.8.1c4.5,0,9.5-2.5,10.1-8a8.661,8.661,0,0,0-6.9-9.3,1.257,1.257,0,0,1-.6.1,2.526,2.526,0,0,0-.271-.015A1.985,1.985,0,0,0,533.714,324.951Zm-297.777,16.66a7.142,7.142,0,0,1-2.7-1.8,7.851,7.851,0,0,1-1.6-2.8,5.633,5.633,0,0,1,.6-4.4,7.87,7.87,0,0,0,.8-2.6,2.768,2.768,0,0,0-.1-.9,3.048,3.048,0,0,1,.1-2.1q.45-.6,2.4-.6h1.9a5.086,5.086,0,0,1,5.4,2.4,10.227,10.227,0,0,1,1.5,5.4,9.423,9.423,0,0,1-2.2,6.4,5.49,5.49,0,0,1-3.7,1.4A9.281,9.281,0,0,1,235.937,341.611Zm-1-4.8a2.447,2.447,0,0,0,2.7,2,2.2,2.2,0,0,0,.8-.1c1.9-.3,2.7-2.2,2.8-3.9a6.464,6.464,0,0,0-.6-3.4,4.109,4.109,0,0,0-2.3-2C236.137,330.411,234.337,334.411,234.937,336.811Zm413.777-.66a6.636,6.636,0,0,1-1.8-5.5,9.261,9.261,0,0,1,3.7-7,16.984,16.984,0,0,1,7.5-3,8.752,8.752,0,0,1,1.6-.2,6.346,6.346,0,0,1,5.1,2.5,9.524,9.524,0,0,1,1.9,5.7,11.672,11.672,0,0,1-2,7,8.814,8.814,0,0,1-6.7,3.7c-.2-.1-.5,0-.9,0-.12,0-.24.005-.359.005A11.976,11.976,0,0,1,648.714,336.151Zm3.9-8.4a4.894,4.894,0,0,0-1.2,3.7,3.715,3.715,0,0,0,1.8,2.6,6.757,6.757,0,0,0,3.9,1.3,5.559,5.559,0,0,0,5.2-3.5,5.948,5.948,0,0,0-1.9-6.7c-.3,0-.5-.1-.7-.1C657.214,325.051,654.014,325.851,652.614,327.751ZM161.737,337.91c-.8-2,2.2-4.6,3.2-5.4a6.467,6.467,0,0,1,4.4-1.8,7.519,7.519,0,0,1,2.6.5,11.9,11.9,0,0,1,2,.8,9.549,9.549,0,0,0,3.3.9,8.774,8.774,0,0,0,1.6-.2c1.1-.3,2.2-.7,3.3-1.1a15.665,15.665,0,0,1,4.8-1.4h.6a14.235,14.235,0,0,1,5.3,1.3,23.61,23.61,0,0,0,3.5,1.1,9.749,9.749,0,0,0,2.4.2,14.672,14.672,0,0,0,5.5-1.2,15.766,15.766,0,0,1,5.2-1.2,11.315,11.315,0,0,1,3.6.6,9.267,9.267,0,0,1,.9.3c2.1.6,6.4,1.8,6.6,2.5a1.721,1.721,0,0,1-.1,1.4,1.535,1.535,0,0,1-1.3.5,15.235,15.235,0,0,1-3.7-.8l-.2-.1c-.5-.2-1-.3-1.4-.5a14.655,14.655,0,0,0-5-1.2,8.536,8.536,0,0,0-2.3.3c-.9.3-1.7.5-2.5.8a19.723,19.723,0,0,1-6.4,1.3,10.872,10.872,0,0,1-1.8-.1,18.948,18.948,0,0,1-3.4-.9,14.593,14.593,0,0,0-4.5-1h-.1a14,14,0,0,0-5.4,1.5,18.2,18.2,0,0,1-3.7,1.3,5.292,5.292,0,0,1-1.3.1,11.087,11.087,0,0,1-3.6-.8h-.1a9.75,9.75,0,0,0-3.3-.7,2.207,2.207,0,0,0-.8.1,6.673,6.673,0,0,0-2.5,1.9c-1.3,1-2.6,2.4-3.8,2.4C162.637,339.311,162.137,338.81,161.737,337.91Zm-15.656-1.793c.266,0,.525,0,.769.005.628.006,1.161.013,1.487-.013,1.3-.1,1.4,1.4,1,2.1-.3.455-1.526.706-2.79.816C146.388,338.062,146.232,337.086,146.081,336.118Zm406.633-2.467c1.3-2.4,5.1-4.3,7.5-5.6,5.6-3,8.9,1.8,14.3,2.5a19.9,19.9,0,0,0,7.52-.952c2.922-.76,5.858-1.52,9.18-.648,3.1.8,4.4,1.5,7.6.6,2.9-.8,4.8-1.7,7.9-.7,1.8.6,5.3,2.4,2,3.8-.785.313-2.115,0-3.492-.316a9.385,9.385,0,0,0-3.508-.383c-3,.6-5.1,1.8-8.2,1.3-2.7-.5-5.1-1.6-7.9-1.2-3.4.4-6.4,2.4-9.8,2.7-2.8.2-5-.6-7.5-1.5-2.4-.8-3.4-1.3-5.7-.4-2.7.9-4.2,3.9-6.7,4.9a3.9,3.9,0,0,1-1.4.286C552.371,338.037,551.461,335.74,552.714,333.651Zm-406.478-3.74a1.488,1.488,0,0,1,1.3-1.3,1.344,1.344,0,0,1,1.4,1.3,1.323,1.323,0,0,1-1.3,1.3A1.345,1.345,0,0,1,146.236,329.911ZM436.252,325.8c.471-5.507,4.209-10.2,9.543-12.678l-3.352-4.864a.614.614,0,0,1,.093-.848.628.628,0,0,1,.848.2l3.473,5.047a20.778,20.778,0,0,1,15.049,0l3.473-5.047a.578.578,0,1,1,.95.644l-3.351,4.864c5.323,2.482,9.062,7.171,9.521,12.678Zm24.029-7.029a2,2,0,1,0,2-1.993A2,2,0,0,0,460.281,318.771Zm-15.559,0a2.013,2.013,0,1,0,2.012-1.993A2.016,2.016,0,0,0,444.721,318.771Zm-299.385,5.54h0Zm879.445-11.063c1.2-.7,3.6.5,4.9.6.262.018.549.016.841.013,1.265-.01,2.622-.02,2.46,1.687-.159,1.586-1.465,2.186-3.04,2.186C1026.551,317.733,1021.913,314.954,1024.781,313.248Zm-507.867-.4c-.9-2.3.4-3.3,2.3-3.8a27.927,27.927,0,0,1-.2-5c-.1-2.9-.1-5.8-.2-8.6-.3-6.8-.4-13.7-1-20.6-.5-6.5-1.8-12.9-1.8-19.4,0-4.5-1.3-15.7,2.6-18.8,6.7-3.9,4.1,9.9,3.9,12.3a149.772,149.772,0,0,0,.8,21.2c.7,6.5-.1,13.1-.4,19.6-.1,3.5-.2,7-.5,10.4-.1,1.1,0,6-.5,8.6h3.6c5.4-.2,10.9-.3,16.3-.5,20.9-.8,41.8-.4,62.6-1.4,19.7-.9,39.5-1.1,59.3-1.4a1.947,1.947,0,0,1,1.9,2.1,2.1,2.1,0,0,1-.5,1.3c-1.1,1.4-6.1,1.1-7.7,1.2-5.6.4-11.1.6-16.7.7-11.8.1-23.5.6-35.2,1.3-20.8,1.2-41.7,1.1-62.6,1.9-5.1.2-10.1.4-15.2.5-1.4,0-3.8.5-6.1.5C519.514,314.852,517.513,314.451,516.914,312.851Zm505.767-6.6c0-2.7,4.1-2.6,4.2,0a2.106,2.106,0,0,1-4.2,0Zm7.3-.5c0-3.3,5.1-3.2,5.1,0a2.555,2.555,0,0,1-5.1,0Zm-362.367-11.2c-.4-7.6-1-15.2-1.7-22.8-1.1-12.3-2.1-24.2-2.1-36.5,0-2.9,3.5-3.5,5.1-1.5,1.5,1.9.5,7.7.6,9.9.1,7.5.8,14.9,1.5,22.4.7,7.4,1.1,14.8,1.7,22.2.2,3.4,2.9,17.1-1,19.1a2.669,2.669,0,0,1-1.2.3C667.014,307.652,667.714,296.651,667.614,294.551Zm225.823,12.361a1.3,1.3,0,0,1-.637-1.127,13.1,13.1,0,0,1,6.819-11.636A19.591,19.591,0,0,1,905,292.021a27.094,27.094,0,0,1-1.688-6.738H892.8a1.326,1.326,0,0,1-.121-2.649h10.433c-.005-.212-.041-.425-.041-.642,0-2.189.035-3.867.116-5.252a9.893,9.893,0,0,1-4.772-2.087c-2.916-2.361-5.616-7.142-5.616-16.367a1.287,1.287,0,0,1,1-1.283,1.475,1.475,0,0,1,.162-.04,1.285,1.285,0,0,1,.521.04,1.249,1.249,0,0,1,.52.359.622.622,0,0,1,.081.08,1.678,1.678,0,0,1,.162.243,1.462,1.462,0,0,1,.081.2c.014.05.03.106.041.162v.242c0,5.459.949,9.022,2.2,11.353a12.464,12.464,0,0,0,.8,1.243,8.9,8.9,0,0,0,1.648,1.764,7.894,7.894,0,0,0,.8.6,7.071,7.071,0,0,0,.8.4,6.1,6.1,0,0,0,1.845.566c.026-.1.056-.227.081-.323a3.669,3.669,0,0,1,1.325-2.129,3.043,3.043,0,0,1,1.724-.52,4.915,4.915,0,0,1,.561.04c.3.031.612.1.925.162a11.042,11.042,0,0,1-1.244-5.454c0-3.69,2.376-6.415,5.374-8.027a18.463,18.463,0,0,1,2.568-1.122,7.693,7.693,0,0,1,15.124.04,17.62,17.62,0,0,1,2.527,1.082c3,1.612,5.378,4.337,5.378,8.027a10.579,10.579,0,0,1-1.526,5.893,10.089,10.089,0,0,1,1.041-.122,3.89,3.89,0,0,1,2.291.6,3.688,3.688,0,0,1,1.324,1.885,6.924,6.924,0,0,0,3.69-1.6c2.214-1.789,4.655-5.626,4.655-14.36v-.08a.97.97,0,0,1,0-.162,1.335,1.335,0,0,1,.076-.243c.01-.035.025-.076.041-.116a1.233,1.233,0,0,1,.161-.2c.025-.04.05-.08.081-.121a1.269,1.269,0,0,1,.643-.359,1.411,1.411,0,0,1,.161-.04,1.28,1.28,0,0,1,.92.319c.041.025.081.05.122.081a.622.622,0,0,1,.081.08,1.137,1.137,0,0,1,.122.243.627.627,0,0,1,.081.081,1.263,1.263,0,0,1,.076.278v.242a29.323,29.323,0,0,1-1.723,10.751,16.95,16.95,0,0,1-.84,1.845,14.776,14.776,0,0,1-.924,1.522,11.922,11.922,0,0,1-1.041,1.243,10.384,10.384,0,0,1-1.087,1.006,9.971,9.971,0,0,1-1.082.763,11.531,11.531,0,0,1-1.082.561,10.167,10.167,0,0,1-1.005.4,9.71,9.71,0,0,1-1.683.4c.136,1.364.2,3.022.2,5.216,0,.217-.035.429-.04.642h10.307a1.324,1.324,0,0,1,0,2.649H941.341a27.089,27.089,0,0,1-1.684,6.738,19.52,19.52,0,0,1,5.374,2.128,13.1,13.1,0,0,1,6.818,11.636,1.284,1.284,0,0,1-.637,1.127,1.306,1.306,0,0,1-1.289,0,1.288,1.288,0,0,1-.637-1.127,10.247,10.247,0,0,0-5.539-9.432,17.5,17.5,0,0,0-5.176-1.961,24.3,24.3,0,0,1-1.885,3.047,20.163,20.163,0,0,1-14.2,8.346h-.324a20.176,20.176,0,0,1-14.2-8.346,24.3,24.3,0,0,1-1.885-3.047,17.568,17.568,0,0,0-5.176,1.961,10.253,10.253,0,0,0-5.534,9.432,1.3,1.3,0,0,1-.637,1.127,1.31,1.31,0,0,1-1.294,0Zm29.7-23.974a1.282,1.282,0,0,1,.471,1.021v19.016a17.568,17.568,0,0,0,10.993-7.061,23.888,23.888,0,0,0,4.413-13.92,28.9,28.9,0,0,0-.48-6.819c-.162-.5-.3-.611-.405-.682a1.05,1.05,0,0,0-.723-.162,52.978,52.978,0,0,0-5.211.966c-.622.121-1.289.247-2.007.359a.349.349,0,0,1-.081,0,.271.271,0,0,0-.081,0,35.6,35.6,0,0,1-7.7.682,31.668,31.668,0,0,1-8.7-.92c-.51-.106-1.021-.217-1.486-.323-2.538-.592-4.337-1.2-5.212-1.284a1.778,1.778,0,0,0-.445,0,.3.3,0,0,0-.121.04,1.644,1.644,0,0,0-.319.723,38.394,38.394,0,0,0-.4,7.42,23.856,23.856,0,0,0,4.413,13.92,17.569,17.569,0,0,0,10.989,7.061V283.958a1.29,1.29,0,0,1,1.005-1.283,1.265,1.265,0,0,1,1.092.263Zm-9.639-22.61c-2.446,1.315-3.932,3.079-3.932,5.662,0,2.9.607,4.544,2.371,5.731s5.044,1.885,10.387,1.885,8.634-.692,10.392-1.885,2.366-2.83,2.366-5.731c0-2.583-1.487-4.347-3.933-5.662a20.839,20.839,0,0,0-17.651,0Zm13.441-4.251a5.13,5.13,0,0,0-9.266,0,24.6,24.6,0,0,1,9.266,0ZM803.288,297.795a11.1,11.1,0,0,1-11.1-11.086V260.825h7.391v25.883a3.711,3.711,0,0,0,3.71,3.7h44.36a3.7,3.7,0,0,0,3.7-3.7V260.825h7.391v25.883a11.087,11.087,0,0,1-11.086,11.086Zm-261.574-3.744c-.2-2.1,3.2-3,4.6-3.7,4.7-2.4,9.4-4.7,14.2-6.9,9.4-4.5,18.9-8.8,28.5-13l.2-.1c-5.3-1.8-10.6-3.5-15.9-5.3-3-1-24.4-6.2-23.6-9.1.9-3.2,19.7,4.3,22.7,5.2,7.1,2.3,14.3,4.6,21.4,7.1,17-7.6,34.2-15.8,52-21.4,1.1-.3,1.8.8,1.6,1.8-.3,1.3-4.3,2.3-5.4,2.8-4.4,2-8.8,3.9-13.1,5.8-9.5,4.3-19.1,8.5-28.6,12.7l-.6.3c6.7,2.4,13.4,4.9,20,7.4,3.5,1.4,7.1,2.8,10.6,4.2,1.8.7,9.1,2.4,9.6,4.2.6,2.5-7.3-.6-8.5-1-3.5-1.1-7-2.4-10.5-3.6-7.8-2.8-15.6-5.7-23.4-8.4l-2.2-.8c-8.3,3.7-16.6,7.5-24.9,11.3-4.4,2.1-8.8,4.1-13.2,6.3-3.6,1.7-9.4,6.2-13.1,6.2C542.714,296.051,541.814,295.751,541.714,294.051ZM142.2,291.935c1.42-.114,2.836-.219,4.239-.324,9.9-.6,19.7-.8,29.6-1,20-.3,40.2.5,60.3.6,4.7,0,9.5,0,14.2-.1,1.148,0,6.738-.779,7.689.484-.541-1.268-.212-3.295-.288-4.284-.2-4.1-.5-8.1-.7-12.1-.481-8.466-1.888-16.841-2.262-25.3-1.936-.221-4.15-.741-5.339-.8-8-.2-16-.2-24-.3-27.346-.43-54.617,1.581-81.941,2.153.061-.626.125-1.269.189-1.893,9.1-.885,19.031-1.8,20.752-1.959,13.9-1.1,27.8-1.3,41.7-1.4,15.7-.1,31.6,0,47.2,1.3.361.031,1.292.07,2.3.176a2.461,2.461,0,0,1,3-.375c1.8,1.1,1.2,4,1.4,5.7.4,4.1,1.2,8.1,1.5,12.2.3,4,.3,8,.4,12,.1,4.1.8,9.4-.3,13.4-.4,1.4-.7,3.4-2.8,2.4a1.637,1.637,0,0,1-.7-.683.779.779,0,0,1,0,.383c-.578,2.227-14.154,2.209-20.293,2.19-1.3,0-2.27-.008-2.707.01-17.8.3-35.4.2-53.2-.1-9.7-.2-19.5.2-29.2.6-3.547.169-7.094.337-10.64.627C142.257,294.339,142.224,293.14,142.2,291.935Zm889.383-7.088c.4-5.5,10.2-7.8,14.3-8.8,5.6-1.5,13.1-2.2,17-7.2a11.738,11.738,0,0,0,2.3-7c0-2-1.9-5.9,1-6.7,3.7-1,3.6,5.8,3.5,7.9a15.678,15.678,0,0,1-4.3,10c-6.2,6.6-16.7,7.1-24.8,10.1-.568.284-5.065,4.145-7.485,4.145C1032.107,287.292,1031.465,286.646,1031.581,284.847Zm-878.144,1.064a29.64,29.64,0,0,1-11.324-2.177q0-2.006.027-4a12.884,12.884,0,0,0,4.4,1.879,25.792,25.792,0,0,0,6.8.7h.5c3.9,0,7.5-1.6,9.4-4.1a7.411,7.411,0,0,0,1.1-6.9,11.957,11.957,0,0,0-2.3-4.3,18.753,18.753,0,0,0-3.5-3.4,11.514,11.514,0,0,0-5.9-2.2,8.817,8.817,0,0,1-2.9-.5,10.723,10.723,0,0,0-7.046,3.081c.085-1.464.178-2.912.28-4.366q.572-.43,1.166-.814a12.722,12.722,0,0,1,5.7-1.8h.7a16.036,16.036,0,0,1,5.7,1.1,18.067,18.067,0,0,1,5.2,3,17.181,17.181,0,0,1,4.1,4.4,17.529,17.529,0,0,1,2.4,5.2,11.152,11.152,0,0,1-2,9.8,13.177,13.177,0,0,1-5.4,4,18.217,18.217,0,0,1-7,1.4Zm875.344-2.164c-6-7.6-17.3-6.4-25.2-10.8-3.9-2.2-7.5-5.4-9.3-9.6-.985-2.56-2.648-9.674.258-11.613-2.2.087-4.408.15-6.658.213-2,.1-5.8.6-8.8.6a9.845,9.845,0,0,1-3.8-.7c-2.2-1-2.1-2.1-1.3-3a16.3,16.3,0,0,1-.6-4.1,93.663,93.663,0,0,1-.8-11.8c0-7.8,0-15.9,2.2-23.4a1.928,1.928,0,0,1-1.4-1.7c0-3.9,12-3.8,18.1-3.7h2.9c4.4-.1,8.7-.1,13.1-.1,1,0,2-.1,3.1-.1a23.519,23.519,0,0,1,6.5.2c5.6,1.3,5.2,10.9,5.3,15.5.2,8.4,0,16.9-.6,25.3-.2,2.9-2.3,6.5-4.7,2.5-1.3-2.2-.7-7.3-.7-9.8,0-8.6,1.3-17.5.1-26.1-.4-2.8-.3-3-3.2-2.9-2.3,0-4.5.1-6.8.2q-6.75,0-13.8.3c-1.8.1-8.1,1.2-13,1.2v.1c.1,3.3-1.6,7.4-1.8,10.9-.5,8.4.2,17-.6,25.4a2.207,2.207,0,0,1-.1.8h.4c3.7-.2,7.4-.1,11.1-.2,2.3-.1,4.7-.1,7.1,0a136.425,136.425,0,0,0,15.7-.6c1.5-.2,2.1,1.8,1.4,2.8-.8,1.1-3.2,1.1-4.4,1.2-3.3.4-6.7.7-10,.8q-.649.036-1.3.069c1.625,1.721.948,7.754,1.4,9.331,2.2,5.4,8,8.5,13.2,10.1,4.9,1.5,10.4,2.5,14.6,5.6,1.5,1.1,5.4,4.4,5,6.6-.2,1.014-.619,1.328-1.069,1.328A2.739,2.739,0,0,1,1028.781,283.747Zm-218.1-.734a3.7,3.7,0,0,1,0-7.406h29.578a3.7,3.7,0,0,1,0,7.406Zm-665.042-8.8c1.2-1.2,3.8,1.2,5.4,1.4a8.143,8.143,0,0,0,1.267.01c1.628-.059,3.617-.118,2.233,2.191a3.2,3.2,0,0,1-2.929,1.383C148.185,279.194,143.656,276.192,145.637,274.211Zm202.792,4.706H328.721v-5.375H305.429V243.085h86v30.458h-43v5.374h0ZM334.1,273.542h8.959v-5.375h8.958V248.459H334.1Zm43-19.708h5.374v14.333h3.583V248.459H357.387v19.708h8.959V253.834h5.375v14.333H377.1V253.835h0Zm-57.334,0h5.374v14.333h3.584V248.459H310.8v19.708h8.959V253.835h0Zm-83.227,19.377a8.9,8.9,0,0,1-2.4-4.2,5.119,5.119,0,0,1,3-6.1,1.91,1.91,0,0,1,1.3-.2,10.466,10.466,0,0,1,5.8,2.5,5.505,5.505,0,0,1,1.7,4.2,6.222,6.222,0,0,1-2.1,4.6,5.166,5.166,0,0,1-3.2,1.1A6.3,6.3,0,0,1,236.537,273.211Zm2-3.9a2.435,2.435,0,0,0,1.9,1.7h.3c.8-.2,1.2-.5,1.3-.9,0-1.2-2.8-3.2-3.3-3.5A2.432,2.432,0,0,0,238.537,269.311Zm-64.4,3.4a3.608,3.608,0,0,1-.6-2c.1-3.2,8.9-6.2,11.7-6.7a7.087,7.087,0,0,1,1.4-.1,12.465,12.465,0,0,1,5.9,1.9,14.083,14.083,0,0,0,6,1.9,11.043,11.043,0,0,0,1.8-.2,17.208,17.208,0,0,0,3.2-1.1,16.693,16.693,0,0,1,4.5-1.3h.7a7.487,7.487,0,0,1,4.5,1.6,20.154,20.154,0,0,0,2.5,1.4,5.839,5.839,0,0,0,1.8.4,5.705,5.705,0,0,0,1.3-.1,6.611,6.611,0,0,1,1.4-.1h.4c1.3.1,2.2.5,2.3,1.2.2.8-.6,1.6-1.9,2.3a5.544,5.544,0,0,1-2.8.7,8.71,8.71,0,0,1-4.4-1.6,11.39,11.39,0,0,0-4.4-1.8h-.7a14.326,14.326,0,0,0-5.7,1.6h-.1a15.765,15.765,0,0,1-5.9,1.6h-.3a14.666,14.666,0,0,1-5.4-1.6,11.585,11.585,0,0,0-4.8-1.4,7.05,7.05,0,0,0-2.8.6,7.559,7.559,0,0,0-1.5.8c-1.8.9-4.7,2.5-6.6,2.5A2.7,2.7,0,0,1,174.137,272.711Zm665.769-1.136-29.461-2.889a3.719,3.719,0,0,1,.689-7.405l29.461,2.888a3.719,3.719,0,0,1-.343,7.422C840.137,271.591,840.021,271.586,839.905,271.575Zm-697.543-.715c.038-.995.08-1.992.126-2.983,1.184-.833,3.349-.284,3.349,1.533a1.926,1.926,0,0,1-2.05,1.95A2.185,2.185,0,0,1,142.362,270.86Zm7.975-2.55c0-2.7,4.1-2.6,4.1,0a2.053,2.053,0,0,1-4.1,0Zm198.092-5.518h-5.374v-8.959h5.375v8.958h0Zm493.73-2.965a3.817,3.817,0,0,1-1.1-.161l-28.3-8.314a3.776,3.776,0,0,1-2.552-4.62,3.607,3.607,0,0,1,3.124-2.551,3.708,3.708,0,0,1,1.5.118l28.317,8.329a3.749,3.749,0,0,1,2.537,4.62,3.64,3.64,0,0,1-3.523,2.58Zm201.022-8.981a1.4,1.4,0,0,1,.3-.9,6.207,6.207,0,0,1-1.4-2.5c-1.2-3.8-1.3-8-1.4-12-.2-8.5-.1-17.1-.1-25.6-.8-1-.3-2.2.7-3.1,2.128-1.8,7.536-1.793,11.239-1.786.823,0,1.561,0,2.161-.014,4.8-.3,9.5-.3,14.3-.3,5,0,10.1.1,15.1.2,1.9.1,14.9.4,9.1,3.5-.4.2-.7.3-1.1.5a14.536,14.536,0,0,1,.2,3.6c-.2,4.5-.4,9.1-.6,13.6-.2,5.1-.4,10.1-.6,15.2-.1,2.7.8,8.9-1.3,10.8a3.1,3.1,0,0,1-1.8.9,1.712,1.712,0,0,1-1.3-.7c-3.6,1.1-10.7.9-15.2.7a25.559,25.559,0,0,0-3.7-.1c-2,0-8.7.7-14.6.7C1047.881,253.547,1043.181,252.948,1043.181,250.847Zm20.2-41.8a139.406,139.406,0,0,0-15.8.9,4.4,4.4,0,0,0-1,.2c.8,3.2-.2,8.6-.2,11.7,0,8.6.3,17.2.5,25.8v.8c4.1-.9,10.8-.7,15.1-.5,1.7.1,3.1.1,3.8.1,4.2,0,8.5,0,12.7.2h2.1a41.58,41.58,0,0,1,5,.1v-.6c-.2-4.6,0-9.2.2-13.7.1-4.6.4-9.2.6-13.8.1-2.4-.5-7.3.1-10.7-3.1-.1-6.3-.4-8.4-.4h-7.8c-1.407-.117-2.778-.166-4.115-.166C1065.22,208.982,1064.291,209.006,1063.381,209.048Zm-218.27,41.147L820.724,233.33a3.641,3.641,0,0,1-.924-5.089,3.954,3.954,0,0,1,2.435-1.613,3.759,3.759,0,0,1,2.771.688l24.255,16.762a3.733,3.733,0,0,1,.924,5.191,3.646,3.646,0,0,1-3,1.578A3.6,3.6,0,0,1,845.111,250.195Zm7.039-8.55L835.975,216.8a3.664,3.664,0,0,1,1.041-5.089,4.226,4.226,0,0,1,1.393-.572,3.635,3.635,0,0,1,3.7,1.613L858.28,237.6a3.648,3.648,0,0,1-1.041,5.089,3.7,3.7,0,0,1-2.031.609A3.642,3.642,0,0,1,852.15,241.645Zm9.707-4.737-4.267-29.343A3.669,3.669,0,0,1,860.7,203.4a3.793,3.793,0,0,1,4.282,3.124l4.164,29.226a3.685,3.685,0,0,1-3.636,4.317A3.7,3.7,0,0,1,861.857,236.908Zm-343.143-1.157c-1.3-.5-2.3-1.2-1.6-2.7.6-1.2,2.6-1.1,4.1-1,.5,0,.9.1,1.2.1,4.9-.1,9.8-.4,14.8-.7,11.2-.7,22.3-1.5,33.5-1.7,21.3-.4,42.6-1.5,63.9-1.7,6.3-.1,12.6.1,18.9.4,2.8.2,5.6.3,8.4.4a15.574,15.574,0,0,0,2-.1c1.7-.1,3.7-.2,4.7.3,5.6,2.9-5.8,3.3-7.2,3.2-5.8-.1-11.6-.5-17.3-.7-21.3-.5-42.7.8-64,1.6-10.2.4-20.4.5-30.7,1.1-5.6.3-11.2.7-16.8,1-2.6.1-5.2.3-7.7.3-1.1,0-3,.3-4.5.3a3.417,3.417,0,0,1-.666.066A3.268,3.268,0,0,1,518.714,235.751ZM259.137,232.61q-.057-.316-.1-.638c-1.231.156-2.393.207-2.9.238-18.9,1.3-38.1.1-57-1.1-17.566-1.131-35.21-.976-52.8-.653.273-1.687.558-3.358.857-5.032,2.746-.016,5.493-.016,8.24-.016,11.3,0,22.7-.2,34.1.2,9.7.2,19.4,1.3,29.2,1.7,9.9.3,19.8.4,29.7.7.846.03,2.232-.058,3.813-.148a51.145,51.145,0,0,1,6.588-.07c.007-1.36.044-2.712,0-3.982q-.3-6.6,0-13.2c.5-6.6,2.1-13.9.7-20.5-1.2-5.8-6.8-3.6-11.8-3.6-13.2,0-26.3-.3-39.4-.3-17.241.065-34.523.588-51.794,1.219.384-1.21.77-2.4,1.168-3.6,11.642-.4,23.284-.934,34.926-1.02,15.5-.2,30.9.3,46.3.5,2.213.034,4.575-.091,6.971-.216,4.425-.231,8.972-.464,12.929.316,5.6,1,5.8,9,5.9,13.4.2,6.8-.8,13.6-.8,20.4,0,2.8.1,5.6,0,8.4-.1,2.1.5,6.5-.6,8.3-.687,1.145-1.388,1.619-2.021,1.619C260.291,235.53,259.446,234.281,259.137,232.61Zm175.414-1.7-9.832-17.072-17.5,4.861a1.625,1.625,0,0,1-1.869-.81l-19.439-37.264a1.623,1.623,0,0,1,1.142-2.348l17.825-3.241a1.2,1.2,0,0,1,.211-.025,1.609,1.609,0,0,1,1.48.81l19.707,34.221,24.058-6.68-7.618-11.241a1.623,1.623,0,0,1-.178-1.48,1.662,1.662,0,0,1,1.1-1l12.16-3.2a1.626,1.626,0,0,1,1.748.651l8.906,12.919a1.616,1.616,0,0,1-.906,2.481l-10.01,2.782,9.308,13.73a1.63,1.63,0,0,1,.211,1.4,1.649,1.649,0,0,1-.982,1.027l-27.561,10.183a1.66,1.66,0,0,1-.56.1A1.613,1.613,0,0,1,434.551,230.909Zm-6.6-17.972,8.727,15.165,24.339-9-8.759-12.912ZM389.8,181.065l17.819,34.157,15.426-4.288-18.712-32.511ZM446.684,192.2l6.942,10.246,8.868-2.47-6.973-10.105ZM148.352,219.319c.245-1.229.5-2.463.758-3.684a14.221,14.221,0,0,0,2.227.176,11.472,11.472,0,0,0,6.7-2,7.314,7.314,0,0,0,3-8.5,13.389,13.389,0,0,0-7.409-8.1q.644-2.307,1.323-4.593a15.987,15.987,0,0,1,4.986,2.9,16.172,16.172,0,0,1,6,8.4,11.761,11.761,0,0,1-1.7,9.1,13.813,13.813,0,0,1-8.7,6,15.777,15.777,0,0,1-4.3.5A21.743,21.743,0,0,1,148.352,219.319Zm376.762-4.867a15.156,15.156,0,0,1-5.9-7.1,11.593,11.593,0,0,1,1.1-10.1,13.176,13.176,0,0,1,3.7-4.1,12.064,12.064,0,0,1,5.2-2.2,14.67,14.67,0,0,1,2.9-.2,16.036,16.036,0,0,1,8.1,2.1,12.152,12.152,0,0,1,5.4,6.4,14.61,14.61,0,0,1-.5,10.3,14.03,14.03,0,0,1-2.9,4.4,11.051,11.051,0,0,1-4.3,2.8,12.1,12.1,0,0,1-3.8.6A16.874,16.874,0,0,1,525.114,214.451Zm-1.4-12.9a5.128,5.128,0,0,0,0,4.2c1.2,2.8,4.5,5.1,7.3,6.1a8.53,8.53,0,0,0,3.1.6c4.3,0,6.6-3.7,6.9-7.1a8.1,8.1,0,0,0-7.1-9h-.8C529.614,196.351,525.214,198.151,523.714,201.551ZM150.48,209.49a2.021,2.021,0,0,0,.257-.079c1.1-.411,1.525.618,1.228,1.647a2.356,2.356,0,0,1-2.239,1.74C149.973,211.684,150.221,210.6,150.48,209.49Zm506.934-2.239a11.106,11.106,0,0,1-3.4-6.8,9.851,9.851,0,0,1,1.2-6.3,10.331,10.331,0,0,1,6.1-4.3c.2,0,.4-.1.6-.1,1.8,0,5.1,1.6,6.5,2.4a10.014,10.014,0,0,1,4.3,5.2,10.66,10.66,0,0,1-.6,8.9,7.082,7.082,0,0,1-5.3,3.7,3.816,3.816,0,0,1-1.9.3A10.938,10.938,0,0,1,657.414,207.251Zm2.2-7.7a6.15,6.15,0,0,0,1.9,3.3,4.86,4.86,0,0,0,3.4,1.5h.2c1.6-.1,2.6-.8,2.6-2.1a6.171,6.171,0,0,0-1.8-3.8,5.9,5.9,0,0,0-4-2.3A2.871,2.871,0,0,0,659.614,199.551Zm-484.977,8.861c-1.1-.3-1.6-.9-1.4-1.8.2-1.2,1.6-3,3.7-4.7,2.1-1.6,4.2-2.6,5.6-2.6h.3a10.379,10.379,0,0,1,3.7,1.7,7.728,7.728,0,0,0,3.8,1.7h.7a11.7,11.7,0,0,0,5.4-1.9,17.085,17.085,0,0,1,3.9-1.7,12.31,12.31,0,0,1,2-.2c2.5,0,4.7,1.1,6.7,2.1,2.1,1,4.2,2.1,6.6,2.1a10.483,10.483,0,0,0,3-.5,9.739,9.739,0,0,0,1.1-.5l1.2-.6a14.587,14.587,0,0,1,4.4-1.6h.4c2.1,0,4,1.2,5.7,2.3.7.4,1.4.9,2.1,1.3a2.02,2.02,0,0,0,1.1.3c.8.2,1.6.4,1.8,1.4a1.386,1.386,0,0,1-.2,1.1,1.5,1.5,0,0,1-1.1.4,3.4,3.4,0,0,1-1-.1h-.4a9.309,9.309,0,0,1-3.9-1.8,7.724,7.724,0,0,0-3.8-1.7h-.4a12.386,12.386,0,0,0-5,1.7,13.7,13.7,0,0,1-3.8,1.5,11.03,11.03,0,0,1-1.8.2,12.868,12.868,0,0,1-6.3-1.9l-.7-.3c-2-1.1-3.6-1.9-5.6-1.9a6.7,6.7,0,0,0-3.1.7c-.9.4-1.7.8-2.5,1.2-2.1,1-4,1.9-6.3,1.9a7.579,7.579,0,0,1-1.5-.1,12.012,12.012,0,0,1-3.1-1.3,9.789,9.789,0,0,0-3.7-1.4h-.3c-1.2.1-2.2,1.3-3.1,2.5-1.1,1.3-2.2,2.6-3.6,2.6A1.269,1.269,0,0,1,174.637,208.411Zm378.377-5.66c2.525-4.189,5.847-3.118,9.23-2.047a13.748,13.748,0,0,0,5.07.947c2.5-.2,4.8-1.8,7.2-2.4a16.223,16.223,0,0,1,9,.5c2.6.7,4.8,1.6,7.5,1.3,2.9-.4,5.3-2.4,8.2-2.6,2.8-.3,5.7,1.3,8.4,1.8,1.7.3,6,.7,2.8,3.2-1.9,1.4-6.1-.3-8-.9-3-.8-4.2-.3-7.2.7a17.2,17.2,0,0,1-9.5.9c-2.7-.6-5.2-1.9-8-1.7-2.9.2-5.2,1.9-7.9,2.8-3,1-5.4.6-8.3-.1-3.5-.9-2.2-.4-5,1.1a3.776,3.776,0,0,1-1.823.51C552.839,206.762,551.634,205.05,553.014,202.751Zm-401.709,3.3c.309-1.255.62-2.485.944-3.73a1.819,1.819,0,0,1,1.287,1.792,1.9,1.9,0,0,1-2,1.95A2.3,2.3,0,0,1,151.306,206.05Zm628.032-11.106h-.005a6.467,6.467,0,0,1-5.071-2.5,6.41,6.41,0,0,1-5.082,2.5,13.668,13.668,0,0,1-5.478-1,8.275,8.275,0,0,1-4.3-4.764,9.894,9.894,0,0,1-7.348-3.569c-1.579-2.118-1.865-5.088-.544-8.168-4.213-1.936-6.578-5.423-6.578-9.037a9.219,9.219,0,0,1,2.354-6.116,22.486,22.486,0,0,1-2.354-9.251c0-7.216,4.218-13.784,10.214-15.06,1.529-3.767,6.424-7.287,14.036-7.287a5.926,5.926,0,0,1,4.922,2c.061.072.1.154.16.231.055-.077.1-.159.159-.231a5.938,5.938,0,0,1,4.928-2c7.568,0,11.341,3.778,12.667,7.266,5.963,1.188,11.452,6.908,11.583,15.06.044,3.069-1.077,6.259-2.6,9.564a8.054,8.054,0,0,1,2.6,5.825,11.292,11.292,0,0,1-1.2,5.544,8.951,8.951,0,0,1-3.977,3.443,8.63,8.63,0,0,1,.991,3.587,7.564,7.564,0,0,1-3.845,6.8,14.168,14.168,0,0,1-6.5,1.508,8.406,8.406,0,0,1-4.307,4.664,13.433,13.433,0,0,1-5.264.99Zm-3.679-6.518a3.491,3.491,0,0,0,3.7,3.73,11.344,11.344,0,0,0,4.3-.765,5.151,5.151,0,0,0,3.228-3.762l.258-1.061h1.094a12.751,12.751,0,0,0,5.957-1.221,4.4,4.4,0,0,0,2.425-4.367,9.98,9.98,0,0,0-1.221-3.466v-.005a1.405,1.405,0,0,1-.175-.918V171.2H782.643v-7.244a4.191,4.191,0,1,1,2.794,0v4.45H798.01v6.171a5.424,5.424,0,0,0,1.937-1.975,8.7,8.7,0,0,0,.858-4.2c0-2.348-.941-3.129-2.4-4.6l-.682-.7.419-.891c1.65-3.443,2.706-6.578,2.662-9.153-.116-7.243-5.242-12.023-9.95-12.6l-.923-.11-.247-.9c-.732-2.569-3.185-5.968-10.335-5.968-1.513,0-2.2.242-2.722.913s-.968,2.173-.968,4.934v6.727H787.1a4.186,4.186,0,1,1,0,2.794h-11.44v5.368a1.266,1.266,0,0,1,0,.451v13.514a1.3,1.3,0,0,1,0,.456v9.543h5.852a4.191,4.191,0,1,1,0,2.794h-5.852Zm-25.785-25.015a6.593,6.593,0,0,0-2.15,4.994c0,2.761,1.765,5.627,6.028,7.057l1.644.555-.886,1.485c-1.694,2.844-1.386,4.879-.221,6.435a7.534,7.534,0,0,0,6.007,2.63h1.089l.264,1.061a5.087,5.087,0,0,0,3.163,3.757,11.494,11.494,0,0,0,4.368.77,3.479,3.479,0,0,0,3.685-3.73V179.8a1.3,1.3,0,0,1,0-.457V169.8h-6.985v5.853a4.185,4.185,0,1,1-2.794,0v-8.646h9.779V155.831h-6.985v-6.98h-3.053a4.191,4.191,0,1,1,0-2.794h5.846v6.98h4.191v-5.369a1.263,1.263,0,0,1,0-.451v-7.887c0-2.761-.445-4.263-.962-4.934s-1.216-.913-2.723-.913c-7.156,0-11.105,3.768-11.732,5.968l-.253.9-.924.11c-4.531.556-8.546,6.166-8.546,12.579a18.138,18.138,0,0,0,1.584,6.985h5.659a4.192,4.192,0,1,1,0,2.794h-4.549ZM784.057,179.5a.844.844,0,0,1,0,.165,1.4,1.4,0,1,0,0-.165Zm-20.973.082a1.4,1.4,0,1,0,2.794,0,1.365,1.365,0,0,0-1.315-1.381.785.785,0,0,1-.159,0A1.374,1.374,0,0,0,763.084,179.581Zm-5.566-18.244a.834.834,0,0,1,0,.165,1.39,1.39,0,0,0,2.777-.082,1.382,1.382,0,0,0-1.4-1.4A1.365,1.365,0,0,0,757.518,161.338Zm26.6.066a1.4,1.4,0,1,0-.165,0,.228.228,0,0,0,.06-.005C784.051,161.4,784.084,161.4,784.122,161.4Zm5.522-14.031a.789.789,0,0,1,0,.16,1.394,1.394,0,1,0,0-.16Zm-32.143.083a1.39,1.39,0,0,0,2.778.077.789.789,0,0,1,0-.16,1.39,1.39,0,0,0-2.778.083Zm-240.888,36.9c-1.4-.2-2.3-.5-2.6-1a2.933,2.933,0,0,1,.2-2.2,8.455,8.455,0,0,0,.5-1.7c.5-2.4.1-5.4-.3-8.4-.2-1.6-.4-3.1-.5-4.4-.7-18.3-.4-36.7,0-52.5.1-3.8.2-7.7.3-11.4a20.923,20.923,0,0,1,.1-2.5v-.9a28.046,28.046,0,0,0-.1-5c-.1-.4-.2-.8-.3-1.1-.3-.6-.4-1,.3-2.1,1-1.3,3.6-1.5,5.8-1.5h5q6.3-.6,12-.9c12.2-.6,24.5-1.4,36.3-2.2,14.815-.976,29.927-1.985,45.108-2.668q2.49,2.161,4.906,4.316c-16.092.59-32.754,1.573-49.614,2.951-7.7.6-15.6,1.1-23.3,1.5-8.9.5-18.1,1-27.1,1.8-3.4.3-3.4.6-3.4,3.3v1.1a24.39,24.39,0,0,1-.1,2.7v.5c-.1,4.7-.3,9.7-.4,14.8-.2,6.4-.6,12.8-.9,19-.2,3.6-.4,7.3-.6,10.9,5.1-3.1,10-6.7,14.7-10.1,4.6-3.3,9.3-6.7,14.2-9.7,7-4.4,14-8.4,21.6-10.3a13.73,13.73,0,0,1,4-.5c4.1,0,8.4,1.4,13.3,4.4a98.367,98.367,0,0,1,11.5,8.6l.6.5,3.9,3.3c2.9,2.4,5.9,4.9,8.9,7.3l.6.5.1.1c2.6,2,5.2,4,8,5.8a6.673,6.673,0,0,0,3.6,1.4c1.4,0,2.6-.8,4.6-2.1.7-.5,1.4-.9,2-1.4,5.6-3.8,10.8-7.3,17.7-7.9a12.642,12.642,0,0,1,2-.1c7.6,0,15.3,3.4,20.4,6.3a164.25,164.25,0,0,1-2.626-39.729q4.123-4,8.529-8.091c-.165.974-.318,1.867-.4,2.619-.3,4-.5,8.4-.5,13.4v1.6a191.576,191.576,0,0,0,1,22.7c.2,1.9.5,3.8.8,5.6.7,4.9,1.4,10,1.7,15.2.1,1.7.1,3.5.2,5.2.1,2.4.2,4.9.3,7.4v1.3a12.246,12.246,0,0,0,.2,2.7,1.834,1.834,0,0,0,.7,1,.915.915,0,0,1,.4.6c.3,1.2.4,2,0,2.6a4.749,4.749,0,0,1-2.5,1.2c-5.4,1.5-11.5,1.7-17.3,1.7h-6.6c-19.8,0-37.7.1-55.6.5-5.4.1-11,.2-16.3.3-12.8.2-25.9.4-38.8,1.5-3,.3-6.1.6-9.1.8-1.2.1-2.4.2-3.5.3-1.3.1-2.6.3-4.1.5a63.794,63.794,0,0,1-7.4.7A14.792,14.792,0,0,1,516.614,184.352Zm475.137-39c-21.8-1.4-42.9-13-64.9-9.8a36.323,36.323,0,0,0-14.5,5.3c-3.4,2-9.9,3.3-7.7-2.4,2.9-7.5,22-9.8,29.8-9.9,22.7-.4,43.2,10.8,66.3,11,5.5,0,11.6-1.3,17-.9,6.4.5,5.7,3.9.1,5.4a59.475,59.475,0,0,1-15.555,1.735C998.659,145.786,995.058,145.593,991.751,145.351ZM346.97,141.565c0-1.131.033-4.841.033-9.448,0-3.2-1.1-5.312-2.331-6.366,7.666-.863,15.713-3.766,15.713-16.99a13.284,13.284,0,0,0-3.531-9.247,12.321,12.321,0,0,0-.347-9.112s-2.88-.919-9.459,3.531a32.74,32.74,0,0,0-17.237,0c-6.579-4.45-9.471-3.531-9.471-3.531A12.419,12.419,0,0,0,320,99.514a13.349,13.349,0,0,0-3.542,9.247c0,13.191,8.036,16.15,15.68,17.013a7.407,7.407,0,0,0-2.185,4.606c-1.962.874-6.949,2.4-10.02-2.869,0,0-1.816-3.295-5.268-3.541,0,0-3.362-.044-.236,2.084,0,0,2.253,1.065,3.822,5.044,0,0,2.017,6.691,11.6,4.618.012,2.869.045,5.032.045,5.85,0,.919-.627,1.973-2.354,1.659a34.418,34.418,0,1,1,21.788,0,3.28,3.28,0,0,1-.618.063A1.631,1.631,0,0,1,346.97,141.565Zm284.744-29.913a9.531,9.531,0,0,1-.727-2.873c-1.228.016-2.29.02-2.973.073-2.2.2-7.5-.4-4.5-4,1.105-1.291,4.4-1.562,7.384-1.6.009-.382.015-.75.015-1.1,0-3.8,3.9-2.3,4.7,0a5.772,5.772,0,0,1,.253,1.089,11.344,11.344,0,0,1,4.292.659c.388.379.766.747,1.15,1.124.134.52-.072,1.184-.8,2.028s-2.443,1.263-4.421,1.482a19.281,19.281,0,0,1-.179,2.318c-.285,1.763-1.086,2.847-2.02,2.847C633.187,113.7,632.4,113.074,631.714,111.651ZM833.822,93.915a14.13,14.13,0,0,1-4.559-3.071,6.094,6.094,0,0,1-1.828-4.152v-8.93a.723.723,0,0,1,0-.187V67.841a.7.7,0,0,1,0-.184V57.923a6.11,6.11,0,0,1,1.828-4.156,14.245,14.245,0,0,1,4.559-3.071,40.065,40.065,0,0,1,28.894,0,14.187,14.187,0,0,1,4.555,3.071,6.114,6.114,0,0,1,1.831,4.156V86.693a6.1,6.1,0,0,1-1.831,4.152,14.072,14.072,0,0,1-4.555,3.071,40.065,40.065,0,0,1-28.894,0Zm-4.4-7.222a4.089,4.089,0,0,0,1.3,2.789,12.448,12.448,0,0,0,3.938,2.605,37.695,37.695,0,0,0,27.219,0,12.416,12.416,0,0,0,3.938-2.605,4.1,4.1,0,0,0,1.305-2.789V82.071a14.3,14.3,0,0,1-4.4,2.914,40.015,40.015,0,0,1-28.894,0,14.251,14.251,0,0,1-4.4-2.914Zm0-9.117a.814.814,0,0,1,0,.187,4.089,4.089,0,0,0,1.3,2.789,12.373,12.373,0,0,0,3.938,2.605,37.695,37.695,0,0,0,27.219,0,12.341,12.341,0,0,0,3.938-2.605,4.1,4.1,0,0,0,1.305-2.789v-5.61a14.446,14.446,0,0,1-4.4,2.914,40.065,40.065,0,0,1-28.894,0,14.4,14.4,0,0,1-4.4-2.914Zm0-9.918a.783.783,0,0,1,0,.184,4.1,4.1,0,0,0,1.3,2.793,12.354,12.354,0,0,0,3.938,2.6,37.683,37.683,0,0,0,27.219,0,12.322,12.322,0,0,0,3.938-2.6,4.1,4.1,0,0,0,1.305-2.793v-5.61a14.316,14.316,0,0,1-4.4,2.914,40.065,40.065,0,0,1-28.894,0,14.267,14.267,0,0,1-4.4-2.914Zm5.238-15.129a12.369,12.369,0,0,0-3.937,2.6,3.646,3.646,0,0,0,0,5.583,12.464,12.464,0,0,0,3.938,2.606,37.745,37.745,0,0,0,27.219,0,12.431,12.431,0,0,0,3.938-2.606,3.638,3.638,0,0,0,0-5.583,12.337,12.337,0,0,0-3.937-2.6,37.682,37.682,0,0,0-27.219,0Z" transform="translate(-1351.43 767)" fill="#a1a1a1" opacity="0.5"/></g></svg>